<?xml version="1.0" encoding="utf-8"?>
<!-- Generator: Adobe Illustrator 19.0.0, SVG Export Plug-In . SVG Version: 6.00 Build 0)  -->
<svg version="1.1" id="Capa_1" xmlns="http://www.w3.org/2000/svg" xmlns:xlink="http://www.w3.org/1999/xlink" x="0px" y="0px"
	 viewBox="-171 50.5 497.4 494.8" style="enable-background:new -171 50.5 497.4 494.8;" xml:space="preserve">
<style type="text/css">
	.st0{fill:#6AB42D;}
	.st1{fill:none;}
	.st2{fill:#FFFFFF;}
	.st3{clip-path:url(#SVGID_2_);}
	.st4{fill:none;stroke:#6AB42D;stroke-width:1.5;stroke-linecap:square;stroke-linejoin:round;}
	.st5{clip-path:url(#SVGID_4_);}
	.st6{fill:#1F77B4;}
	.st7{fill:none;stroke:#1F77B4;stroke-linejoin:round;}
	.st8{stroke:#000000;stroke-width:0.8;stroke-linejoin:round;}
	.st9{clip-path:url(#SVGID_6_);fill:none;stroke:#FF0000;stroke-width:1.5;stroke-linejoin:round;}
	.st10{clip-path:url(#SVGID_8_);fill:none;stroke:#FF0000;stroke-width:1.5;stroke-linejoin:round;}
	.st11{clip-path:url(#SVGID_10_);fill:none;stroke:#FF0000;stroke-width:1.5;stroke-linejoin:round;}
	.st12{clip-path:url(#SVGID_12_);fill:none;stroke:#FF0000;stroke-width:1.5;stroke-linejoin:round;}
	.st13{clip-path:url(#SVGID_14_);fill:none;stroke:#FF0000;stroke-width:1.5;stroke-linejoin:round;}
	.st14{clip-path:url(#SVGID_16_);fill:none;stroke:#FF0000;stroke-width:1.5;stroke-linejoin:round;}
	.st15{clip-path:url(#SVGID_18_);fill:none;stroke:#FF0000;stroke-width:1.5;stroke-linejoin:round;}
	.st16{clip-path:url(#SVGID_20_);fill:none;stroke:#FF0000;stroke-width:1.5;stroke-linejoin:round;}
	.st17{clip-path:url(#SVGID_22_);fill:none;stroke:#FF0000;stroke-width:1.5;stroke-linejoin:round;}
	.st18{clip-path:url(#SVGID_24_);fill:none;stroke:#FF0000;stroke-width:1.5;stroke-linejoin:round;}
	.st19{clip-path:url(#SVGID_26_);fill:none;stroke:#FF0000;stroke-width:1.5;stroke-linejoin:round;}
	.st20{clip-path:url(#SVGID_28_);fill:none;stroke:#FF0000;stroke-width:1.5;stroke-linejoin:round;}
	.st21{clip-path:url(#SVGID_30_);fill:none;stroke:#FF0000;stroke-width:1.5;stroke-linejoin:round;}
	.st22{clip-path:url(#SVGID_32_);fill:none;stroke:#FF0000;stroke-width:1.5;stroke-linejoin:round;}
	.st23{clip-path:url(#SVGID_34_);fill:none;stroke:#FF0000;stroke-width:1.5;stroke-linejoin:round;}
	.st24{clip-path:url(#SVGID_36_);fill:none;stroke:#FF0000;stroke-width:1.5;stroke-linejoin:round;}
	.st25{clip-path:url(#SVGID_38_);fill:none;stroke:#FF0000;stroke-width:1.5;stroke-linejoin:round;}
	.st26{clip-path:url(#SVGID_40_);fill:none;stroke:#FF0000;stroke-width:1.5;stroke-linejoin:round;}
	.st27{fill:none;stroke:#000000;stroke-width:0.8;stroke-linecap:square;}
	.st28{fill:none;stroke:#000000;stroke-miterlimit:10;}
	.st29{opacity:0.8;fill:#FFFFFF;stroke:#CCCCCC;enable-background:new    ;}
	.st30{stroke:#6AB42D;stroke-width:1.5;stroke-linecap:square;stroke-linejoin:round;}
	.st31{fill:#FFE045;}
	.st32{font-family:'ScriptMTBold';}
	.st33{font-size:12px;}
	.st34{fill:none;stroke:#E50953;stroke-width:0.25;stroke-miterlimit:10;}
</style>
<rect x="-171" y="50.5" class="st0" width="497.4" height="494.8"/>
<path class="st1" d="M-171,545.3h497.4V50.5H-171V545.3z"/>
<path class="st2" d="M-127.8,507.7h446.4V74.4h-446.4V507.7z"/>
<g>
	<defs>
		<rect id="SVGID_1_" x="-127.2" y="72.8" width="446.4" height="434.9"/>
	</defs>
	<use xlink:href="#SVGID_1_"  style="overflow:visible;"/>
	<clipPath id="SVGID_2_">
		<use xlink:href="#SVGID_1_"  style="overflow:visible;"/>
	</clipPath>
	<g class="st3">
		
			<image style="overflow:visible;opacity:0.75;" width="431" height="404" xlink:href="5C26B1C5.png"  transform="matrix(1 0 0 1 -119.0079 103.2722)">
		</image>
		<g>
			<polyline points="-17.6,410.5 -62.9,452.6 -100.8,488 127.3,275.4 77.5,321.8 26.7,369.1 292.4,121.5 234.4,175.5 179.9,226.4 
							"/>
			<polyline class="st4" points="-17.6,410.5 -62.9,452.6 -100.8,488 127.3,275.4 77.5,321.8 26.7,369.1 292.4,121.5 234.4,175.5 
				179.9,226.4 			"/>
		</g>
	</g>
</g>
<g>
	<defs>
		<rect id="SVGID_3_" x="-127.2" y="72.8" width="446.4" height="434.9"/>
	</defs>
	<clipPath id="SVGID_4_">
		<use xlink:href="#SVGID_3_"  style="overflow:visible;"/>
	</clipPath>
	<g id="m100e885356" class="st5">
		
			<image style="overflow:visible;" width="43" height="43" xlink:href="5C26B1C7.png"  transform="matrix(1 0 0 1 -39.0079 388.2722)">
		</image>
		<g>
			<path class="st6" d="M-17.6,412.7c0.8,0,1.6-0.3,2.1-0.9c0.6-0.6,0.9-1.3,0.9-2.1c0-0.8-0.3-1.6-0.9-2.1
				c-0.6-0.6-1.3-0.9-2.1-0.9s-1.6,0.3-2.1,0.9c-0.6,0.6-0.9,1.3-0.9,2.1c0,0.8,0.3,1.6,0.9,2.1C-19.2,412.4-18.4,412.7-17.6,412.7z
				"/>
			<path class="st7" d="M-17.6,412.7c0.8,0,1.6-0.3,2.1-0.9c0.6-0.6,0.9-1.3,0.9-2.1c0-0.8-0.3-1.6-0.9-2.1
				c-0.6-0.6-1.3-0.9-2.1-0.9s-1.6,0.3-2.1,0.9c-0.6,0.6-0.9,1.3-0.9,2.1c0,0.8,0.3,1.6,0.9,2.1C-19.2,412.4-18.4,412.7-17.6,412.7z
				"/>
		</g>
	</g>
	<g id="m100e885356_1_" class="st5">
		
			<image style="overflow:visible;" width="43" height="43" xlink:href="5C26B1C2.png"  transform="matrix(1 0 0 1 -84.0079 423.2722)">
		</image>
		<g>
			<path class="st6" d="M-62.9,447.1c0.8,0,1.6-0.3,2.1-0.9c0.6-0.6,0.9-1.3,0.9-2.1c0-0.8-0.3-1.6-0.9-2.1
				c-0.6-0.6-1.3-0.9-2.1-0.9s-1.6,0.3-2.1,0.9c-0.6,0.6-0.9,1.3-0.9,2.1c0,0.8,0.3,1.6,0.9,2.1C-64.4,446.8-63.7,447.1-62.9,447.1z
				"/>
			<path class="st7" d="M-62.9,447.1c0.8,0,1.6-0.3,2.1-0.9c0.6-0.6,0.9-1.3,0.9-2.1c0-0.8-0.3-1.6-0.9-2.1
				c-0.6-0.6-1.3-0.9-2.1-0.9s-1.6,0.3-2.1,0.9c-0.6,0.6-0.9,1.3-0.9,2.1c0,0.8,0.3,1.6,0.9,2.1C-64.4,446.8-63.7,447.1-62.9,447.1z
				"/>
		</g>
	</g>
	<g id="m100e885356_2_" class="st5">
		
			<image style="overflow:visible;" width="43" height="43" xlink:href="5C26B1C3.png"  transform="matrix(1 0 0 1 -122.0079 451.2722)">
		</image>
		<g>
			<path class="st6" d="M-100.8,475.4c0.8,0,1.6-0.3,2.1-0.9c0.6-0.6,0.9-1.3,0.9-2.1c0-0.8-0.3-1.6-0.9-2.1
				c-0.6-0.6-1.3-0.9-2.1-0.9s-1.6,0.3-2.1,0.9c-0.6,0.6-0.9,1.3-0.9,2.1c0,0.8,0.3,1.6,0.9,2.1
				C-102.3,475.1-101.6,475.4-100.8,475.4z"/>
			<path class="st7" d="M-100.8,475.4c0.8,0,1.6-0.3,2.1-0.9c0.6-0.6,0.9-1.3,0.9-2.1c0-0.8-0.3-1.6-0.9-2.1
				c-0.6-0.6-1.3-0.9-2.1-0.9s-1.6,0.3-2.1,0.9c-0.6,0.6-0.9,1.3-0.9,2.1c0,0.8,0.3,1.6,0.9,2.1
				C-102.3,475.1-101.6,475.4-100.8,475.4z"/>
		</g>
	</g>
	<g id="m100e885356_3_" class="st5">
		
			<image style="overflow:visible;" width="43" height="43" xlink:href="5C26B1CD.png"  transform="matrix(1 0 0 1 105.9921 269.2722)">
		</image>
		<g>
			<path class="st6" d="M127.3,293.6c0.8,0,1.6-0.3,2.1-0.9s0.9-1.3,0.9-2.1c0-0.8-0.3-1.6-0.9-2.1s-1.3-0.9-2.1-0.9
				s-1.6,0.3-2.1,0.9c-0.6,0.6-0.9,1.3-0.9,2.1c0,0.8,0.3,1.6,0.9,2.1C125.7,293.3,126.5,293.6,127.3,293.6z"/>
			<path class="st7" d="M127.3,293.6c0.8,0,1.6-0.3,2.1-0.9s0.9-1.3,0.9-2.1c0-0.8-0.3-1.6-0.9-2.1s-1.3-0.9-2.1-0.9
				s-1.6,0.3-2.1,0.9c-0.6,0.6-0.9,1.3-0.9,2.1c0,0.8,0.3,1.6,0.9,2.1C125.7,293.3,126.5,293.6,127.3,293.6z"/>
		</g>
	</g>
	<g id="m100e885356_4_" class="st5">
		
			<image style="overflow:visible;" width="43" height="43" xlink:href="5C26B1CF.png"  transform="matrix(1 0 0 1 56.9921 317.2722)">
		</image>
		<g>
			<path class="st6" d="M77.5,341c0.8,0,1.6-0.3,2.1-0.9c0.6-0.6,0.9-1.3,0.9-2.1c0-0.8-0.3-1.6-0.9-2.1c-0.6-0.6-1.3-0.9-2.1-0.9
				s-1.6,0.3-2.1,0.9c-0.6,0.6-0.9,1.3-0.9,2.1c0,0.8,0.3,1.6,0.9,2.1C76,340.7,76.7,341,77.5,341z"/>
			<path class="st7" d="M77.5,341c0.8,0,1.6-0.3,2.1-0.9c0.6-0.6,0.9-1.3,0.9-2.1c0-0.8-0.3-1.6-0.9-2.1c-0.6-0.6-1.3-0.9-2.1-0.9
				s-1.6,0.3-2.1,0.9c-0.6,0.6-0.9,1.3-0.9,2.1c0,0.8,0.3,1.6,0.9,2.1C76,340.7,76.7,341,77.5,341z"/>
		</g>
	</g>
	<g id="m100e885356_5_" class="st5">
		
			<image style="overflow:visible;" width="43" height="43" xlink:href="5C26B1C0.png"  transform="matrix(1 0 0 1 5.9921 356.2722)">
		</image>
		<g>
			<path class="st6" d="M26.7,380.6c0.8,0,1.6-0.3,2.1-0.9c0.6-0.6,0.9-1.3,0.9-2.1c0-0.8-0.3-1.6-0.9-2.1c-0.6-0.6-1.3-0.9-2.1-0.9
				s-1.6,0.3-2.1,0.9c-0.6,0.6-0.9,1.3-0.9,2.1c0,0.8,0.3,1.6,0.9,2.1C25.2,380.3,25.9,380.6,26.7,380.6z"/>
			<path class="st7" d="M26.7,380.6c0.8,0,1.6-0.3,2.1-0.9c0.6-0.6,0.9-1.3,0.9-2.1c0-0.8-0.3-1.6-0.9-2.1c-0.6-0.6-1.3-0.9-2.1-0.9
				s-1.6,0.3-2.1,0.9c-0.6,0.6-0.9,1.3-0.9,2.1c0,0.8,0.3,1.6,0.9,2.1C25.2,380.3,25.9,380.6,26.7,380.6z"/>
		</g>
	</g>
	<g id="m100e885356_6_" class="st5">
		
			<image style="overflow:visible;" width="43" height="43" xlink:href="5C26B1C1.png"  transform="matrix(1 0 0 1 270.9921 77.2722)">
		</image>
		<g>
			<path class="st6" d="M292.4,101.7c0.8,0,1.6-0.3,2.1-0.9c0.6-0.6,0.9-1.3,0.9-2.1s-0.3-1.6-0.9-2.1c-0.6-0.6-1.3-0.9-2.1-0.9
				c-0.8,0-1.6,0.3-2.1,0.9c-0.6,0.6-0.9,1.3-0.9,2.1s0.3,1.6,0.9,2.1C290.8,101.4,291.6,101.7,292.4,101.7z"/>
			<path class="st7" d="M292.4,101.7c0.8,0,1.6-0.3,2.1-0.9c0.6-0.6,0.9-1.3,0.9-2.1s-0.3-1.6-0.9-2.1c-0.6-0.6-1.3-0.9-2.1-0.9
				c-0.8,0-1.6,0.3-2.1,0.9c-0.6,0.6-0.9,1.3-0.9,2.1s0.3,1.6,0.9,2.1C290.8,101.4,291.6,101.7,292.4,101.7z"/>
		</g>
	</g>
	<g id="m100e885356_7_" class="st5">
		
			<image style="overflow:visible;" width="43" height="43" xlink:href="5C26B1C6.png"  transform="matrix(1 0 0 1 212.9921 149.2722)">
		</image>
		<g>
			<path class="st6" d="M234.4,173.3c0.8,0,1.6-0.3,2.1-0.9c0.6-0.6,0.9-1.3,0.9-2.1s-0.3-1.6-0.9-2.1c-0.6-0.6-1.3-0.9-2.1-0.9
				s-1.6,0.3-2.1,0.9c-0.6,0.6-0.9,1.3-0.9,2.1s0.3,1.6,0.9,2.1C232.9,173,233.6,173.3,234.4,173.3z"/>
			<path class="st7" d="M234.4,173.3c0.8,0,1.6-0.3,2.1-0.9c0.6-0.6,0.9-1.3,0.9-2.1s-0.3-1.6-0.9-2.1c-0.6-0.6-1.3-0.9-2.1-0.9
				s-1.6,0.3-2.1,0.9c-0.6,0.6-0.9,1.3-0.9,2.1s0.3,1.6,0.9,2.1C232.9,173,233.6,173.3,234.4,173.3z"/>
		</g>
	</g>
	<g id="m100e885356_8_" class="st5">
		
			<image style="overflow:visible;" width="43" height="43" xlink:href="5197B18E.png"  transform="matrix(1 0 0 1 158.9921 218.2722)">
		</image>
		<g>
			<path class="st6" d="M179.9,242.3c0.8,0,1.6-0.3,2.1-0.9s0.9-1.3,0.9-2.1s-0.3-1.6-0.9-2.1s-1.3-0.9-2.1-0.9s-1.6,0.3-2.1,0.9
				s-0.9,1.3-0.9,2.1s0.3,1.6,0.9,2.1S179.1,242.3,179.9,242.3z"/>
			<path class="st7" d="M179.9,242.3c0.8,0,1.6-0.3,2.1-0.9s0.9-1.3,0.9-2.1s-0.3-1.6-0.9-2.1s-1.3-0.9-2.1-0.9s-1.6,0.3-2.1,0.9
				s-0.9,1.3-0.9,2.1s0.3,1.6,0.9,2.1S179.1,242.3,179.9,242.3z"/>
		</g>
	</g>
</g>
<path id="m745bb6fc5c" class="st8" d="M-119.7,507.7v3.5"/>
<path id="DejaVuSans-48" d="M-137.2,515.7c-0.5,0-0.9,0.3-1.1,0.8c-0.3,0.5-0.4,1.3-0.4,2.3c0,1,0.1,1.7,0.4,2.2
	c0.3,0.5,0.6,0.8,1.1,0.8c0.5,0,0.9-0.3,1.2-0.8c0.3-0.5,0.4-1.2,0.4-2.2c0-1-0.1-1.8-0.4-2.3C-136.3,515.9-136.7,515.7-137.2,515.7
	z M-137.2,514.9c0.8,0,1.4,0.3,1.9,1c0.4,0.6,0.6,1.6,0.6,2.8c0,1.2-0.2,2.2-0.6,2.8c-0.4,0.6-1.1,1-1.9,1c-0.8,0-1.4-0.3-1.9-1
	c-0.4-0.6-0.6-1.6-0.6-2.8c0-1.2,0.2-2.2,0.6-2.8C-138.6,515.2-138,514.9-137.2,514.9z"/>
<path id="DejaVuSans-46" d="M-132.9,521.1h1v1.2h-1V521.1z"/>
<path id="DejaVuSans-48_1_" d="M-127.6,515.7c-0.5,0-0.9,0.3-1.1,0.8c-0.3,0.5-0.4,1.3-0.4,2.3c0,1,0.1,1.7,0.4,2.2
	c0.3,0.5,0.6,0.8,1.1,0.8c0.5,0,0.9-0.3,1.2-0.8c0.3-0.5,0.4-1.2,0.4-2.2c0-1-0.1-1.8-0.4-2.3C-126.8,515.9-127.1,515.7-127.6,515.7
	z M-127.6,514.9c0.8,0,1.4,0.3,1.9,1c0.4,0.6,0.6,1.6,0.6,2.8c0,1.2-0.2,2.2-0.6,2.8c-0.4,0.6-1.1,1-1.9,1c-0.8,0-1.4-0.3-1.9-1
	c-0.4-0.6-0.6-1.6-0.6-2.8c0-1.2,0.2-2.2,0.6-2.8C-129.1,515.2-128.5,514.9-127.6,514.9z"/>
<path id="DejaVuSans-48_2_" d="M-121.3,515.7c-0.5,0-0.9,0.3-1.1,0.8c-0.3,0.5-0.4,1.3-0.4,2.3c0,1,0.1,1.7,0.4,2.2
	c0.3,0.5,0.6,0.8,1.1,0.8c0.5,0,0.9-0.3,1.2-0.8c0.3-0.5,0.4-1.2,0.4-2.2c0-1-0.1-1.8-0.4-2.3C-120.4,515.9-120.8,515.7-121.3,515.7
	z M-121.3,514.9c0.8,0,1.4,0.3,1.9,1c0.4,0.6,0.6,1.6,0.6,2.8c0,1.2-0.2,2.2-0.6,2.8c-0.4,0.6-1.1,1-1.9,1c-0.8,0-1.4-0.3-1.9-1
	c-0.4-0.6-0.6-1.6-0.6-2.8c0-1.2,0.2-2.2,0.6-2.8C-122.7,515.2-122.1,514.9-121.3,514.9z"/>
<path id="DejaVuSans-48_3_" d="M-114.9,515.7c-0.5,0-0.9,0.3-1.1,0.8c-0.3,0.5-0.4,1.3-0.4,2.3c0,1,0.1,1.7,0.4,2.2
	c0.3,0.5,0.6,0.8,1.1,0.8c0.5,0,0.9-0.3,1.2-0.8c0.3-0.5,0.4-1.2,0.4-2.2c0-1-0.1-1.8-0.4-2.3C-114,515.9-114.4,515.7-114.9,515.7z
	 M-114.9,514.9c0.8,0,1.4,0.3,1.9,1c0.4,0.6,0.6,1.6,0.6,2.8c0,1.2-0.2,2.2-0.6,2.8c-0.4,0.6-1.1,1-1.9,1c-0.8,0-1.4-0.3-1.9-1
	c-0.4-0.6-0.6-1.6-0.6-2.8c0-1.2,0.2-2.2,0.6-2.8C-116.4,515.2-115.7,514.9-114.9,514.9z"/>
<path id="DejaVuSans-51" d="M-107.7,518.4c0.5,0.1,0.8,0.3,1.1,0.6c0.3,0.3,0.4,0.7,0.4,1.2c0,0.7-0.2,1.3-0.7,1.7
	c-0.5,0.4-1.2,0.6-2.1,0.6c-0.3,0-0.6,0-0.9-0.1s-0.7-0.2-1-0.3v-1c0.3,0.2,0.6,0.3,0.9,0.4c0.3,0.1,0.7,0.1,1,0.1
	c0.6,0,1.1-0.1,1.4-0.4c0.3-0.2,0.5-0.6,0.5-1.1c0-0.4-0.2-0.8-0.5-1c-0.3-0.2-0.7-0.4-1.3-0.4h-0.8V518h0.9c0.5,0,0.9-0.1,1.1-0.3
	c0.3-0.2,0.4-0.5,0.4-0.8c0-0.4-0.1-0.7-0.4-0.9c-0.3-0.2-0.6-0.3-1.1-0.3c-0.3,0-0.6,0-0.9,0.1c-0.3,0.1-0.6,0.1-1,0.3v-0.9
	c0.4-0.1,0.7-0.2,1.1-0.2c0.3-0.1,0.6-0.1,0.9-0.1c0.7,0,1.3,0.2,1.8,0.5c0.4,0.3,0.7,0.8,0.7,1.4c0,0.4-0.1,0.7-0.3,1
	C-106.9,518.1-107.3,518.3-107.7,518.4z"/>
<path id="DejaVuSans-52" d="M-101.6,515.9l-2.5,3.9h2.5V515.9z M-101.9,515h1.2v4.8h1v0.8h-1v1.7h-1v-1.7h-3.3v-1L-101.9,515z"/>
<path id="m745bb6fc5c_1_" class="st8" d="M-56.2,507.7v3.5"/>
<path id="DejaVuSans-48_4_" d="M-73.7,515.7c-0.5,0-0.9,0.3-1.1,0.8c-0.3,0.5-0.4,1.3-0.4,2.3c0,1,0.1,1.7,0.4,2.2
	c0.3,0.5,0.6,0.8,1.1,0.8c0.5,0,0.9-0.3,1.2-0.8c0.3-0.5,0.4-1.2,0.4-2.2c0-1-0.1-1.8-0.4-2.3C-72.8,515.9-73.2,515.7-73.7,515.7z
	 M-73.7,514.9c0.8,0,1.4,0.3,1.9,1c0.4,0.6,0.6,1.6,0.6,2.8c0,1.2-0.2,2.2-0.6,2.8c-0.4,0.6-1.1,1-1.9,1c-0.8,0-1.4-0.3-1.9-1
	c-0.4-0.6-0.6-1.6-0.6-2.8c0-1.2,0.2-2.2,0.6-2.8C-75.1,515.2-74.5,514.9-73.7,514.9z"/>
<path id="DejaVuSans-46_1_" d="M-69.4,521.1h1v1.2h-1V521.1z"/>
<path id="DejaVuSans-48_5_" d="M-64.1,515.7c-0.5,0-0.9,0.3-1.1,0.8c-0.3,0.5-0.4,1.3-0.4,2.3c0,1,0.1,1.7,0.4,2.2
	c0.3,0.5,0.6,0.8,1.1,0.8c0.5,0,0.9-0.3,1.2-0.8c0.3-0.5,0.4-1.2,0.4-2.2c0-1-0.1-1.8-0.4-2.3C-63.2,515.9-63.6,515.7-64.1,515.7z
	 M-64.1,514.9c0.8,0,1.4,0.3,1.9,1c0.4,0.6,0.6,1.6,0.6,2.8c0,1.2-0.2,2.2-0.6,2.8c-0.4,0.6-1.1,1-1.9,1c-0.8,0-1.4-0.3-1.9-1
	c-0.4-0.6-0.6-1.6-0.6-2.8c0-1.2,0.2-2.2,0.6-2.8C-65.6,515.2-65,514.9-64.1,514.9z"/>
<path id="DejaVuSans-48_6_" d="M-57.8,515.7c-0.5,0-0.9,0.3-1.1,0.8c-0.3,0.5-0.4,1.3-0.4,2.3c0,1,0.1,1.7,0.4,2.2
	c0.3,0.5,0.6,0.8,1.1,0.8c0.5,0,0.9-0.3,1.2-0.8c0.3-0.5,0.4-1.2,0.4-2.2c0-1-0.1-1.8-0.4-2.3C-56.9,515.9-57.3,515.7-57.8,515.7z
	 M-57.8,514.9c0.8,0,1.4,0.3,1.9,1c0.4,0.6,0.6,1.6,0.6,2.8c0,1.2-0.2,2.2-0.6,2.8c-0.4,0.6-1.1,1-1.9,1c-0.8,0-1.4-0.3-1.9-1
	c-0.4-0.6-0.6-1.6-0.6-2.8c0-1.2,0.2-2.2,0.6-2.8C-59.2,515.2-58.6,514.9-57.8,514.9z"/>
<path id="DejaVuSans-48_7_" d="M-51.4,515.7c-0.5,0-0.9,0.3-1.1,0.8c-0.3,0.5-0.4,1.3-0.4,2.3c0,1,0.1,1.7,0.4,2.2
	c0.3,0.5,0.6,0.8,1.1,0.8c0.5,0,0.9-0.3,1.2-0.8c0.3-0.5,0.4-1.2,0.4-2.2c0-1-0.1-1.8-0.4-2.3C-50.5,515.9-50.9,515.7-51.4,515.7z
	 M-51.4,514.9c0.8,0,1.4,0.3,1.9,1c0.4,0.6,0.6,1.6,0.6,2.8c0,1.2-0.2,2.2-0.6,2.8c-0.4,0.6-1.1,1-1.9,1c-0.8,0-1.4-0.3-1.9-1
	c-0.4-0.6-0.6-1.6-0.6-2.8c0-1.2,0.2-2.2,0.6-2.8C-52.9,515.2-52.2,514.9-51.4,514.9z"/>
<path id="DejaVuSans-51_1_" d="M-44.2,518.4c0.5,0.1,0.8,0.3,1.1,0.6c0.3,0.3,0.4,0.7,0.4,1.2c0,0.7-0.2,1.3-0.7,1.7
	c-0.5,0.4-1.2,0.6-2.1,0.6c-0.3,0-0.6,0-0.9-0.1s-0.7-0.2-1-0.3v-1c0.3,0.2,0.6,0.3,0.9,0.4c0.3,0.1,0.7,0.1,1,0.1
	c0.6,0,1.1-0.1,1.4-0.4c0.3-0.2,0.5-0.6,0.5-1.1c0-0.4-0.2-0.8-0.5-1c-0.3-0.2-0.7-0.4-1.3-0.4h-0.8V518h0.9c0.5,0,0.9-0.1,1.1-0.3
	c0.3-0.2,0.4-0.5,0.4-0.8c0-0.4-0.1-0.7-0.4-0.9c-0.3-0.2-0.6-0.3-1.1-0.3c-0.3,0-0.6,0-0.9,0.1c-0.3,0.1-0.6,0.1-1,0.3v-0.9
	c0.4-0.1,0.7-0.2,1.1-0.2c0.3-0.1,0.6-0.1,0.9-0.1c0.7,0,1.3,0.2,1.8,0.5c0.4,0.3,0.7,0.8,0.7,1.4c0,0.4-0.1,0.7-0.3,1
	S-43.7,518.3-44.2,518.4z"/>
<path id="DejaVuSans-54" d="M-38.6,518.3c-0.4,0-0.8,0.2-1.1,0.5c-0.3,0.3-0.4,0.7-0.4,1.2c0,0.5,0.1,0.9,0.4,1.2
	c0.3,0.3,0.6,0.5,1.1,0.5s0.8-0.2,1.1-0.5c0.3-0.3,0.4-0.7,0.4-1.2c0-0.5-0.1-0.9-0.4-1.2C-37.8,518.4-38.1,518.3-38.6,518.3z
	 M-36.6,515.2v0.9c-0.2-0.1-0.5-0.2-0.8-0.3c-0.3-0.1-0.5-0.1-0.8-0.1c-0.7,0-1.1,0.2-1.5,0.7c-0.3,0.4-0.5,1.1-0.6,2
	c0.2-0.3,0.4-0.5,0.7-0.7c0.3-0.2,0.6-0.2,1-0.2c0.7,0,1.3,0.2,1.7,0.7c0.4,0.4,0.6,1,0.6,1.8c0,0.7-0.2,1.4-0.7,1.8
	c-0.4,0.5-1,0.7-1.8,0.7c-0.8,0-1.5-0.3-1.9-1c-0.4-0.6-0.7-1.6-0.7-2.8c0-1.2,0.3-2.1,0.8-2.8s1.3-1,2.2-1c0.2,0,0.5,0,0.8,0.1
	S-36.9,515.1-36.6,515.2z"/>
<path id="m745bb6fc5c_2_" class="st8" d="M7.3,507.7v3.5"/>
<path id="DejaVuSans-48_8_" d="M-10.2,515.7c-0.5,0-0.9,0.3-1.1,0.8c-0.3,0.5-0.4,1.3-0.4,2.3c0,1,0.1,1.7,0.4,2.2
	c0.3,0.5,0.6,0.8,1.1,0.8c0.5,0,0.9-0.3,1.1-0.8c0.3-0.5,0.4-1.2,0.4-2.2c0-1-0.1-1.8-0.4-2.3C-9.3,515.9-9.6,515.7-10.2,515.7z
	 M-10.2,514.9c0.8,0,1.4,0.3,1.9,1c0.4,0.6,0.6,1.6,0.6,2.8c0,1.2-0.2,2.2-0.6,2.8c-0.4,0.6-1.1,1-1.9,1c-0.8,0-1.4-0.3-1.9-1
	c-0.4-0.6-0.6-1.6-0.6-2.8c0-1.2,0.2-2.2,0.6-2.8C-11.6,515.2-11,514.9-10.2,514.9z"/>
<path id="DejaVuSans-46_2_" d="M-5.9,521.1h1v1.2h-1V521.1z"/>
<path id="DejaVuSans-48_9_" d="M-0.6,515.7c-0.5,0-0.9,0.3-1.1,0.8c-0.3,0.5-0.4,1.3-0.4,2.3c0,1,0.1,1.7,0.4,2.2
	c0.3,0.5,0.6,0.8,1.1,0.8c0.5,0,0.9-0.3,1.1-0.8c0.3-0.5,0.4-1.2,0.4-2.2c0-1-0.1-1.8-0.4-2.3C0.3,515.9-0.1,515.7-0.6,515.7z
	 M-0.6,514.9c0.8,0,1.4,0.3,1.9,1c0.4,0.6,0.6,1.6,0.6,2.8c0,1.2-0.2,2.2-0.6,2.8c-0.4,0.6-1.1,1-1.9,1c-0.8,0-1.4-0.3-1.9-1
	c-0.4-0.6-0.6-1.6-0.6-2.8c0-1.2,0.2-2.2,0.6-2.8C-2.1,515.2-1.4,514.9-0.6,514.9z"/>
<path id="DejaVuSans-48_10_" d="M5.7,515.7c-0.5,0-0.9,0.3-1.1,0.8c-0.3,0.5-0.4,1.3-0.4,2.3c0,1,0.1,1.7,0.4,2.2
	c0.3,0.5,0.6,0.8,1.1,0.8c0.5,0,0.9-0.3,1.2-0.8c0.3-0.5,0.4-1.2,0.4-2.2c0-1-0.1-1.8-0.4-2.3C6.6,515.9,6.3,515.7,5.7,515.7z
	 M5.7,514.9c0.8,0,1.4,0.3,1.9,1c0.4,0.6,0.6,1.6,0.6,2.8c0,1.2-0.2,2.2-0.6,2.8c-0.4,0.6-1.1,1-1.9,1c-0.8,0-1.4-0.3-1.9-1
	c-0.4-0.6-0.6-1.6-0.6-2.8c0-1.2,0.2-2.2,0.6-2.8C4.3,515.2,4.9,514.9,5.7,514.9z"/>
<path id="DejaVuSans-48_11_" d="M12.1,515.7c-0.5,0-0.9,0.3-1.1,0.8c-0.3,0.5-0.4,1.3-0.4,2.3c0,1,0.1,1.7,0.4,2.2
	c0.3,0.5,0.6,0.8,1.1,0.8c0.5,0,0.9-0.3,1.1-0.8c0.3-0.5,0.4-1.2,0.4-2.2c0-1-0.1-1.8-0.4-2.3C13,515.9,12.6,515.7,12.1,515.7z
	 M12.1,514.9c0.8,0,1.4,0.3,1.9,1c0.4,0.6,0.6,1.6,0.6,2.8c0,1.2-0.2,2.2-0.6,2.8c-0.4,0.6-1.1,1-1.9,1c-0.8,0-1.4-0.3-1.9-1
	c-0.4-0.6-0.6-1.6-0.6-2.8c0-1.2,0.2-2.2,0.6-2.8C10.7,515.2,11.3,514.9,12.1,514.9z"/>
<path id="DejaVuSans-51_2_" d="M19.3,518.4c0.5,0.1,0.8,0.3,1.1,0.6c0.3,0.3,0.4,0.7,0.4,1.2c0,0.7-0.2,1.3-0.7,1.7
	c-0.5,0.4-1.2,0.6-2.1,0.6c-0.3,0-0.6,0-0.9-0.1c-0.3-0.1-0.7-0.2-1-0.3v-1c0.3,0.2,0.6,0.3,0.9,0.4c0.3,0.1,0.7,0.1,1,0.1
	c0.6,0,1.1-0.1,1.4-0.4c0.3-0.2,0.5-0.6,0.5-1.1c0-0.4-0.2-0.8-0.5-1c-0.3-0.2-0.7-0.4-1.3-0.4h-0.9V518h0.9c0.5,0,0.9-0.1,1.1-0.3
	c0.3-0.2,0.4-0.5,0.4-0.8c0-0.4-0.1-0.7-0.4-0.9c-0.3-0.2-0.6-0.3-1.1-0.3c-0.3,0-0.6,0-0.9,0.1c-0.3,0.1-0.6,0.1-1,0.3v-0.9
	c0.4-0.1,0.7-0.2,1.1-0.2c0.3-0.1,0.6-0.1,0.9-0.1c0.7,0,1.3,0.2,1.8,0.5c0.4,0.3,0.7,0.8,0.7,1.4c0,0.4-0.1,0.7-0.3,1
	C20.1,518.1,19.8,518.3,19.3,518.4z"/>
<path id="DejaVuSans-56" d="M24.8,518.9c-0.5,0-0.8,0.1-1.1,0.4c-0.3,0.3-0.4,0.6-0.4,1c0,0.4,0.1,0.8,0.4,1
	c0.3,0.3,0.6,0.4,1.1,0.4s0.8-0.1,1.1-0.4c0.3-0.3,0.4-0.6,0.4-1c0-0.4-0.1-0.8-0.4-1C25.7,519,25.3,518.9,24.8,518.9z M23.8,518.4
	c-0.4-0.1-0.8-0.3-1-0.6c-0.2-0.3-0.4-0.6-0.4-1.1c0-0.6,0.2-1,0.6-1.4c0.4-0.3,1-0.5,1.7-0.5c0.7,0,1.3,0.2,1.7,0.5
	c0.4,0.3,0.6,0.8,0.6,1.4c0,0.4-0.1,0.8-0.4,1.1c-0.2,0.3-0.6,0.5-1,0.6c0.5,0.1,0.8,0.3,1.1,0.7c0.3,0.3,0.4,0.7,0.4,1.2
	c0,0.7-0.2,1.3-0.6,1.6c-0.4,0.4-1,0.6-1.9,0.6c-0.8,0-1.4-0.2-1.9-0.6c-0.4-0.4-0.6-0.9-0.6-1.6c0-0.5,0.1-0.9,0.4-1.2
	C23,518.8,23.4,518.6,23.8,518.4z M23.5,516.9c0,0.4,0.1,0.7,0.4,0.9c0.2,0.2,0.6,0.3,1,0.3c0.4,0,0.8-0.1,1-0.3
	c0.2-0.2,0.4-0.5,0.4-0.9c0-0.4-0.1-0.7-0.4-0.9c-0.2-0.2-0.6-0.3-1-0.3c-0.4,0-0.8,0.1-1,0.3C23.6,516.2,23.5,516.5,23.5,516.9z"/>
<path id="m745bb6fc5c_3_" class="st8" d="M70.9,507.7v3.5"/>
<path id="DejaVuSans-48_12_" d="M53.4,515.7c-0.5,0-0.9,0.3-1.1,0.8c-0.3,0.5-0.4,1.3-0.4,2.3c0,1,0.1,1.7,0.4,2.2
	c0.3,0.5,0.6,0.8,1.1,0.8c0.5,0,0.9-0.3,1.2-0.8c0.3-0.5,0.4-1.2,0.4-2.2c0-1-0.1-1.8-0.4-2.3C54.3,515.9,53.9,515.7,53.4,515.7z
	 M53.4,514.9c0.8,0,1.4,0.3,1.9,1c0.4,0.6,0.6,1.6,0.6,2.8c0,1.2-0.2,2.2-0.6,2.8c-0.4,0.6-1.1,1-1.9,1c-0.8,0-1.4-0.3-1.9-1
	c-0.4-0.6-0.6-1.6-0.6-2.8c0-1.2,0.2-2.2,0.6-2.8C51.9,515.2,52.5,514.9,53.4,514.9z"/>
<path id="DejaVuSans-46_3_" d="M57.6,521.1h1v1.2h-1V521.1z"/>
<path id="DejaVuSans-48_13_" d="M62.9,515.7c-0.5,0-0.9,0.3-1.1,0.8c-0.3,0.5-0.4,1.3-0.4,2.3c0,1,0.1,1.7,0.4,2.2
	c0.3,0.5,0.6,0.8,1.1,0.8c0.5,0,0.9-0.3,1.2-0.8c0.3-0.5,0.4-1.2,0.4-2.2c0-1-0.1-1.8-0.4-2.3C63.8,515.9,63.4,515.7,62.9,515.7z
	 M62.9,514.9c0.8,0,1.4,0.3,1.9,1c0.4,0.6,0.6,1.6,0.6,2.8c0,1.2-0.2,2.2-0.6,2.8c-0.4,0.6-1.1,1-1.9,1c-0.8,0-1.4-0.3-1.9-1
	c-0.4-0.6-0.6-1.6-0.6-2.8c0-1.2,0.2-2.2,0.6-2.8C61.5,515.2,62.1,514.9,62.9,514.9z"/>
<path id="DejaVuSans-48_14_" d="M69.3,515.7c-0.5,0-0.9,0.3-1.1,0.8c-0.3,0.5-0.4,1.3-0.4,2.3c0,1,0.1,1.7,0.4,2.2
	c0.3,0.5,0.6,0.8,1.1,0.8c0.5,0,0.9-0.3,1.2-0.8c0.3-0.5,0.4-1.2,0.4-2.2c0-1-0.1-1.8-0.4-2.3C70.2,515.9,69.8,515.7,69.3,515.7z
	 M69.3,514.9c0.8,0,1.4,0.3,1.9,1c0.4,0.6,0.6,1.6,0.6,2.8c0,1.2-0.2,2.2-0.6,2.8c-0.4,0.6-1.1,1-1.9,1c-0.8,0-1.4-0.3-1.9-1
	c-0.4-0.6-0.6-1.6-0.6-2.8c0-1.2,0.2-2.2,0.6-2.8C67.8,515.2,68.4,514.9,69.3,514.9z"/>
<path id="DejaVuSans-48_15_" d="M75.6,515.7c-0.5,0-0.9,0.3-1.1,0.8c-0.3,0.5-0.4,1.3-0.4,2.3c0,1,0.1,1.7,0.4,2.2
	c0.3,0.5,0.6,0.8,1.1,0.8c0.5,0,0.9-0.3,1.2-0.8c0.3-0.5,0.4-1.2,0.4-2.2c0-1-0.1-1.8-0.4-2.3C76.5,515.9,76.1,515.7,75.6,515.7z
	 M75.6,514.9c0.8,0,1.4,0.3,1.9,1c0.4,0.6,0.6,1.6,0.6,2.8c0,1.2-0.2,2.2-0.6,2.8c-0.4,0.6-1.1,1-1.9,1c-0.8,0-1.4-0.3-1.9-1
	c-0.4-0.6-0.6-1.6-0.6-2.8c0-1.2,0.2-2.2,0.6-2.8C74.2,515.2,74.8,514.9,75.6,514.9z"/>
<path id="DejaVuSans-52_1_" d="M82.6,515.9l-2.5,3.9h2.5V515.9z M82.3,515h1.2v4.8h1v0.8h-1v1.7h-1v-1.7h-3.3v-1L82.3,515z"/>
<path id="DejaVuSans-48_16_" d="M88.3,515.7c-0.5,0-0.9,0.3-1.1,0.8c-0.3,0.5-0.4,1.3-0.4,2.3c0,1,0.1,1.7,0.4,2.2
	c0.3,0.5,0.6,0.8,1.1,0.8c0.5,0,0.9-0.3,1.2-0.8c0.3-0.5,0.4-1.2,0.4-2.2c0-1-0.1-1.8-0.4-2.3C89.2,515.9,88.9,515.7,88.3,515.7z
	 M88.3,514.9c0.8,0,1.4,0.3,1.9,1c0.4,0.6,0.6,1.6,0.6,2.8c0,1.2-0.2,2.2-0.6,2.8c-0.4,0.6-1.1,1-1.9,1c-0.8,0-1.4-0.3-1.9-1
	c-0.4-0.6-0.6-1.6-0.6-2.8c0-1.2,0.2-2.2,0.6-2.8C86.9,515.2,87.5,514.9,88.3,514.9z"/>
<path id="m745bb6fc5c_4_" class="st8" d="M134.4,507.7v3.5"/>
<path id="DejaVuSans-48_17_" d="M116.9,515.7c-0.5,0-0.9,0.3-1.1,0.8c-0.3,0.5-0.4,1.3-0.4,2.3c0,1,0.1,1.7,0.4,2.2
	c0.3,0.5,0.6,0.8,1.1,0.8c0.5,0,0.9-0.3,1.2-0.8c0.3-0.5,0.4-1.2,0.4-2.2c0-1-0.1-1.8-0.4-2.3C117.8,515.9,117.4,515.7,116.9,515.7z
	 M116.9,514.9c0.8,0,1.4,0.3,1.9,1c0.4,0.6,0.6,1.6,0.6,2.8c0,1.2-0.2,2.2-0.6,2.8c-0.4,0.6-1.1,1-1.9,1c-0.8,0-1.4-0.3-1.9-1
	c-0.4-0.6-0.6-1.6-0.6-2.8c0-1.2,0.2-2.2,0.6-2.8C115.4,515.2,116.1,514.9,116.9,514.9z"/>
<path id="DejaVuSans-46_4_" d="M121.1,521.1h1v1.2h-1V521.1z"/>
<path id="DejaVuSans-48_18_" d="M126.4,515.7c-0.5,0-0.9,0.3-1.1,0.8c-0.3,0.5-0.4,1.3-0.4,2.3c0,1,0.1,1.7,0.4,2.2
	c0.3,0.5,0.6,0.8,1.1,0.8c0.5,0,0.9-0.3,1.2-0.8c0.3-0.5,0.4-1.2,0.4-2.2c0-1-0.1-1.8-0.4-2.3C127.3,515.9,126.9,515.7,126.4,515.7z
	 M126.4,514.9c0.8,0,1.4,0.3,1.9,1c0.4,0.6,0.6,1.6,0.6,2.8c0,1.2-0.2,2.2-0.6,2.8c-0.4,0.6-1.1,1-1.9,1c-0.8,0-1.4-0.3-1.9-1
	c-0.4-0.6-0.6-1.6-0.6-2.8c0-1.2,0.2-2.2,0.6-2.8C125,515.2,125.6,514.9,126.4,514.9z"/>
<path id="DejaVuSans-48_19_" d="M132.8,515.7c-0.5,0-0.9,0.3-1.1,0.8c-0.3,0.5-0.4,1.3-0.4,2.3c0,1,0.1,1.7,0.4,2.2
	c0.3,0.5,0.6,0.8,1.1,0.8c0.5,0,0.9-0.3,1.1-0.8c0.3-0.5,0.4-1.2,0.4-2.2c0-1-0.1-1.8-0.4-2.3C133.7,515.9,133.3,515.7,132.8,515.7z
	 M132.8,514.9c0.8,0,1.4,0.3,1.9,1c0.4,0.6,0.6,1.6,0.6,2.8c0,1.2-0.2,2.2-0.6,2.8c-0.4,0.6-1.1,1-1.9,1c-0.8,0-1.4-0.3-1.9-1
	c-0.4-0.6-0.6-1.6-0.6-2.8c0-1.2,0.2-2.2,0.6-2.8C131.3,515.2,132,514.9,132.8,514.9z"/>
<path id="DejaVuSans-48_20_" d="M139.1,515.7c-0.5,0-0.9,0.3-1.1,0.8c-0.3,0.5-0.4,1.3-0.4,2.3c0,1,0.1,1.7,0.4,2.2
	c0.3,0.5,0.6,0.8,1.1,0.8c0.5,0,0.9-0.3,1.1-0.8c0.3-0.5,0.4-1.2,0.4-2.2c0-1-0.1-1.8-0.4-2.3C140,515.9,139.6,515.7,139.1,515.7z
	 M139.1,514.9c0.8,0,1.4,0.3,1.9,1c0.4,0.6,0.6,1.6,0.6,2.8c0,1.2-0.2,2.2-0.6,2.8c-0.4,0.6-1.1,1-1.9,1c-0.8,0-1.4-0.3-1.9-1
	c-0.4-0.6-0.6-1.6-0.6-2.8c0-1.2,0.2-2.2,0.6-2.8C137.7,515.2,138.3,514.9,139.1,514.9z"/>
<path id="DejaVuSans-52_2_" d="M146.1,515.9l-2.5,3.9h2.5V515.9z M145.8,515h1.2v4.8h1v0.8h-1v1.7h-1v-1.7h-3.3v-1L145.8,515z"/>
<path id="DejaVuSans-50" d="M150.6,521.5h3.4v0.8h-4.6v-0.8c0.4-0.4,0.9-0.9,1.5-1.6c0.6-0.7,1.1-1.1,1.2-1.3
	c0.3-0.4,0.5-0.7,0.7-0.9c0.1-0.2,0.2-0.5,0.2-0.7c0-0.4-0.1-0.7-0.4-0.9c-0.3-0.2-0.6-0.4-1.1-0.4c-0.3,0-0.6,0.1-1,0.2
	c-0.3,0.1-0.7,0.3-1.1,0.5v-1c0.4-0.2,0.8-0.3,1.1-0.4c0.3-0.1,0.7-0.1,0.9-0.1c0.8,0,1.4,0.2,1.8,0.6c0.4,0.4,0.7,0.9,0.7,1.5
	c0,0.3-0.1,0.6-0.2,0.9c-0.1,0.3-0.3,0.6-0.6,0.9c-0.1,0.1-0.3,0.4-0.8,0.8C152,520.1,151.4,520.7,150.6,521.5z"/>
<path id="m745bb6fc5c_5_" class="st8" d="M197.9,507.7v3.5"/>
<path id="DejaVuSans-48_21_" d="M180.4,515.7c-0.5,0-0.9,0.3-1.1,0.8c-0.3,0.5-0.4,1.3-0.4,2.3c0,1,0.1,1.7,0.4,2.2
	c0.3,0.5,0.6,0.8,1.1,0.8c0.5,0,0.9-0.3,1.1-0.8c0.3-0.5,0.4-1.2,0.4-2.2c0-1-0.1-1.8-0.4-2.3C181.3,515.9,180.9,515.7,180.4,515.7z
	 M180.4,514.9c0.8,0,1.4,0.3,1.9,1c0.4,0.6,0.6,1.6,0.6,2.8c0,1.2-0.2,2.2-0.6,2.8c-0.4,0.6-1.1,1-1.9,1c-0.8,0-1.4-0.3-1.9-1
	c-0.4-0.6-0.6-1.6-0.6-2.8c0-1.2,0.2-2.2,0.6-2.8C178.9,515.2,179.6,514.9,180.4,514.9z"/>
<path id="DejaVuSans-46_5_" d="M184.6,521.1h1v1.2h-1V521.1z"/>
<path id="DejaVuSans-48_22_" d="M189.9,515.7c-0.5,0-0.9,0.3-1.1,0.8c-0.3,0.5-0.4,1.3-0.4,2.3c0,1,0.1,1.7,0.4,2.2
	c0.3,0.5,0.6,0.8,1.1,0.8c0.5,0,0.9-0.3,1.1-0.8c0.3-0.5,0.4-1.2,0.4-2.2c0-1-0.1-1.8-0.4-2.3C190.8,515.9,190.4,515.7,189.9,515.7z
	 M189.9,514.9c0.8,0,1.4,0.3,1.9,1c0.4,0.6,0.6,1.6,0.6,2.8c0,1.2-0.2,2.2-0.6,2.8c-0.4,0.6-1.1,1-1.9,1c-0.8,0-1.4-0.3-1.9-1
	c-0.4-0.6-0.6-1.6-0.6-2.8c0-1.2,0.2-2.2,0.6-2.8C188.5,515.2,189.1,514.9,189.9,514.9z"/>
<path id="DejaVuSans-48_23_" d="M196.3,515.7c-0.5,0-0.9,0.3-1.1,0.8c-0.3,0.5-0.4,1.3-0.4,2.3c0,1,0.1,1.7,0.4,2.2
	c0.3,0.5,0.6,0.8,1.1,0.8c0.5,0,0.9-0.3,1.1-0.8c0.3-0.5,0.4-1.2,0.4-2.2c0-1-0.1-1.8-0.4-2.3C197.2,515.9,196.8,515.7,196.3,515.7z
	 M196.3,514.9c0.8,0,1.4,0.3,1.9,1c0.4,0.6,0.6,1.6,0.6,2.8c0,1.2-0.2,2.2-0.6,2.8c-0.4,0.6-1.1,1-1.9,1c-0.8,0-1.4-0.3-1.9-1
	c-0.4-0.6-0.6-1.6-0.6-2.8c0-1.2,0.2-2.2,0.6-2.8C194.8,515.2,195.5,514.9,196.3,514.9z"/>
<path id="DejaVuSans-48_24_" d="M202.7,515.7c-0.5,0-0.9,0.3-1.1,0.8c-0.3,0.5-0.4,1.3-0.4,2.3c0,1,0.1,1.7,0.4,2.2
	c0.3,0.5,0.6,0.8,1.1,0.8c0.5,0,0.9-0.3,1.1-0.8c0.3-0.5,0.4-1.2,0.4-2.2c0-1-0.1-1.8-0.4-2.3C203.5,515.9,203.2,515.7,202.7,515.7z
	 M202.7,514.9c0.8,0,1.4,0.3,1.9,1c0.4,0.6,0.6,1.6,0.6,2.8c0,1.2-0.2,2.2-0.6,2.8c-0.4,0.6-1.1,1-1.9,1c-0.8,0-1.4-0.3-1.9-1
	c-0.4-0.6-0.6-1.6-0.6-2.8c0-1.2,0.2-2.2,0.6-2.8C201.2,515.2,201.8,514.9,202.7,514.9z"/>
<path id="DejaVuSans-52_3_" d="M209.6,515.9l-2.5,3.9h2.5V515.9z M209.4,515h1.2v4.8h1v0.8h-1v1.7h-1v-1.7h-3.3v-1L209.4,515z"/>
<path id="DejaVuSans-52_4_" d="M216,515.9l-2.5,3.9h2.5V515.9z M215.7,515h1.2v4.8h1v0.8h-1v1.7h-1v-1.7h-3.3v-1L215.7,515z"/>
<path id="m745bb6fc5c_6_" class="st8" d="M261.4,507.7v3.5"/>
<path id="DejaVuSans-48_25_" d="M243.9,515.7c-0.5,0-0.9,0.3-1.1,0.8c-0.3,0.5-0.4,1.3-0.4,2.3c0,1,0.1,1.7,0.4,2.2
	c0.3,0.5,0.6,0.8,1.1,0.8c0.5,0,0.9-0.3,1.1-0.8c0.3-0.5,0.4-1.2,0.4-2.2c0-1-0.1-1.8-0.4-2.3C244.8,515.9,244.4,515.7,243.9,515.7z
	 M243.9,514.9c0.8,0,1.4,0.3,1.9,1c0.4,0.6,0.6,1.6,0.6,2.8c0,1.2-0.2,2.2-0.6,2.8c-0.4,0.6-1.1,1-1.9,1c-0.8,0-1.4-0.3-1.9-1
	c-0.4-0.6-0.6-1.6-0.6-2.8c0-1.2,0.2-2.2,0.6-2.8C242.5,515.2,243.1,514.9,243.9,514.9z"/>
<path id="DejaVuSans-46_6_" d="M248.2,521.1h1v1.2h-1V521.1z"/>
<path id="DejaVuSans-48_26_" d="M253.4,515.7c-0.5,0-0.9,0.3-1.1,0.8c-0.3,0.5-0.4,1.3-0.4,2.3c0,1,0.1,1.7,0.4,2.2
	c0.3,0.5,0.6,0.8,1.1,0.8c0.5,0,0.9-0.3,1.1-0.8c0.3-0.5,0.4-1.2,0.4-2.2c0-1-0.1-1.8-0.4-2.3C254.3,515.9,254,515.7,253.4,515.7z
	 M253.4,514.9c0.8,0,1.4,0.3,1.9,1c0.4,0.6,0.6,1.6,0.6,2.8c0,1.2-0.2,2.2-0.6,2.8c-0.4,0.6-1.1,1-1.9,1c-0.8,0-1.4-0.3-1.9-1
	c-0.4-0.6-0.6-1.6-0.6-2.8c0-1.2,0.2-2.2,0.6-2.8C252,515.2,252.6,514.9,253.4,514.9z"/>
<path id="DejaVuSans-48_27_" d="M259.8,515.7c-0.5,0-0.9,0.3-1.1,0.8c-0.3,0.5-0.4,1.3-0.4,2.3c0,1,0.1,1.7,0.4,2.2
	c0.3,0.5,0.6,0.8,1.1,0.8c0.5,0,0.9-0.3,1.2-0.8c0.3-0.5,0.4-1.2,0.4-2.2c0-1-0.1-1.8-0.4-2.3C260.7,515.9,260.3,515.7,259.8,515.7z
	 M259.8,514.9c0.8,0,1.4,0.3,1.9,1c0.4,0.6,0.6,1.6,0.6,2.8c0,1.2-0.2,2.2-0.6,2.8c-0.4,0.6-1.1,1-1.9,1c-0.8,0-1.4-0.3-1.9-1
	c-0.4-0.6-0.6-1.6-0.6-2.8c0-1.2,0.2-2.2,0.6-2.8C258.4,515.2,259,514.9,259.8,514.9z"/>
<path id="DejaVuSans-48_28_" d="M266.2,515.7c-0.5,0-0.9,0.3-1.1,0.8c-0.3,0.5-0.4,1.3-0.4,2.3c0,1,0.1,1.7,0.4,2.2
	c0.3,0.5,0.6,0.8,1.1,0.8c0.5,0,0.9-0.3,1.2-0.8c0.3-0.5,0.4-1.2,0.4-2.2c0-1-0.1-1.8-0.4-2.3C267.1,515.9,266.7,515.7,266.2,515.7z
	 M266.2,514.9c0.8,0,1.4,0.3,1.9,1c0.4,0.6,0.6,1.6,0.6,2.8c0,1.2-0.2,2.2-0.6,2.8c-0.4,0.6-1.1,1-1.9,1c-0.8,0-1.4-0.3-1.9-1
	c-0.4-0.6-0.6-1.6-0.6-2.8c0-1.2,0.2-2.2,0.6-2.8C264.7,515.2,265.4,514.9,266.2,514.9z"/>
<path id="DejaVuSans-52_5_" d="M273.1,515.9l-2.5,3.9h2.5V515.9z M272.9,515h1.2v4.8h1v0.8h-1v1.7h-1v-1.7h-3.3v-1L272.9,515z"/>
<path id="DejaVuSans-54_1_" d="M279,518.3c-0.4,0-0.8,0.2-1.1,0.5c-0.3,0.3-0.4,0.7-0.4,1.2c0,0.5,0.1,0.9,0.4,1.2
	c0.3,0.3,0.6,0.5,1.1,0.5s0.8-0.2,1.1-0.5c0.3-0.3,0.4-0.7,0.4-1.2c0-0.5-0.1-0.9-0.4-1.2C279.8,518.4,279.5,518.3,279,518.3z
	 M281,515.2v0.9c-0.2-0.1-0.5-0.2-0.8-0.3c-0.3-0.1-0.5-0.1-0.8-0.1c-0.7,0-1.1,0.2-1.5,0.7c-0.3,0.4-0.5,1.1-0.6,2
	c0.2-0.3,0.4-0.5,0.7-0.7c0.3-0.2,0.6-0.2,1-0.2c0.7,0,1.3,0.2,1.7,0.7c0.4,0.4,0.6,1,0.6,1.8c0,0.7-0.2,1.4-0.7,1.8
	c-0.4,0.5-1,0.7-1.8,0.7c-0.8,0-1.5-0.3-1.9-1c-0.4-0.6-0.7-1.6-0.7-2.8c0-1.2,0.3-2.1,0.8-2.8s1.3-1,2.2-1c0.2,0,0.5,0,0.8,0.1
	C280.4,515,280.7,515.1,281,515.2z"/>
<path id="DejaVuSans-68" d="M49.6,529.5v5.7h1.2c1,0,1.7-0.2,2.2-0.7c0.5-0.5,0.7-1.2,0.7-2.2c0-1-0.2-1.7-0.7-2.1s-1.2-0.7-2.2-0.7
	H49.6z M48.6,528.7h2c1.4,0,2.4,0.3,3.1,0.9c0.7,0.6,1,1.5,1,2.8c0,1.3-0.3,2.2-1,2.8c-0.7,0.6-1.7,0.9-3.1,0.9h-2V528.7z"/>
<path id="DejaVuSans-111" d="M58.4,531.2c-0.5,0-0.9,0.2-1.1,0.6s-0.4,0.9-0.4,1.5s0.1,1.2,0.4,1.5c0.3,0.4,0.7,0.6,1.1,0.6
	c0.5,0,0.9-0.2,1.1-0.6c0.3-0.4,0.4-0.9,0.4-1.5c0-0.6-0.1-1.2-0.4-1.5C59.2,531.4,58.8,531.2,58.4,531.2z M58.4,530.4
	c0.8,0,1.4,0.3,1.8,0.8c0.4,0.5,0.7,1.2,0.7,2.1c0,0.9-0.2,1.6-0.7,2.1c-0.4,0.5-1.1,0.8-1.8,0.8c-0.8,0-1.4-0.3-1.8-0.8
	c-0.4-0.5-0.7-1.2-0.7-2.1c0-0.9,0.2-1.6,0.7-2.1C57,530.7,57.6,530.4,58.4,530.4z"/>
<path id="DejaVuSans-115" d="M65.9,530.7v0.8c-0.3-0.1-0.5-0.2-0.8-0.3c-0.3-0.1-0.6-0.1-0.8-0.1c-0.4,0-0.8,0.1-1,0.2
	c-0.2,0.1-0.3,0.3-0.3,0.6c0,0.2,0.1,0.4,0.2,0.5c0.2,0.1,0.5,0.2,1,0.3l0.3,0.1c0.6,0.1,1.1,0.3,1.4,0.6c0.3,0.2,0.4,0.6,0.4,1
	c0,0.5-0.2,0.9-0.6,1.2c-0.4,0.3-1,0.4-1.7,0.4c-0.3,0-0.6,0-0.9-0.1c-0.3-0.1-0.7-0.1-1-0.3v-0.9c0.3,0.2,0.7,0.3,1,0.4
	c0.3,0.1,0.6,0.1,1,0.1c0.4,0,0.7-0.1,1-0.2c0.2-0.1,0.3-0.3,0.3-0.6c0-0.2-0.1-0.4-0.2-0.6c-0.2-0.1-0.5-0.3-1.1-0.4l-0.3-0.1
	c-0.6-0.1-1-0.3-1.2-0.5c-0.2-0.2-0.4-0.6-0.4-1c0-0.5,0.2-0.9,0.5-1.2c0.4-0.3,0.9-0.4,1.6-0.4c0.3,0,0.6,0,0.9,0.1
	C65.3,530.5,65.6,530.6,65.9,530.7z"/>
<path id="DejaVuSans-105" d="M67.6,530.5h0.9v5.5h-0.9V530.5z M67.6,528.4h0.9v1.1h-0.9V528.4z"/>
<path id="DejaVuSans-115_1_" d="M73.8,530.7v0.8c-0.3-0.1-0.5-0.2-0.8-0.3c-0.3-0.1-0.6-0.1-0.8-0.1c-0.4,0-0.8,0.1-1,0.2
	s-0.3,0.3-0.3,0.6c0,0.2,0.1,0.4,0.2,0.5c0.2,0.1,0.5,0.2,1,0.3l0.3,0.1c0.6,0.1,1.1,0.3,1.4,0.6c0.3,0.2,0.4,0.6,0.4,1
	c0,0.5-0.2,0.9-0.6,1.2c-0.4,0.3-1,0.4-1.7,0.4c-0.3,0-0.6,0-0.9-0.1c-0.3-0.1-0.7-0.1-1-0.3v-0.9c0.3,0.2,0.7,0.3,1,0.4
	c0.3,0.1,0.6,0.1,1,0.1c0.4,0,0.7-0.1,1-0.2c0.2-0.1,0.3-0.3,0.3-0.6c0-0.2-0.1-0.4-0.2-0.6c-0.2-0.1-0.5-0.3-1.1-0.4l-0.3-0.1
	c-0.6-0.1-1-0.3-1.2-0.5c-0.2-0.2-0.4-0.6-0.4-1c0-0.5,0.2-0.9,0.5-1.2c0.4-0.3,0.9-0.4,1.6-0.4c0.3,0,0.6,0,0.9,0.1
	C73.3,530.5,73.6,530.6,73.8,530.7z"/>
<path id="DejaVuSans-32" d="M74.6,536"/>
<path id="DejaVuSans-101" d="M83.4,533v0.4h-4.1c0,0.6,0.2,1.1,0.6,1.4s0.8,0.5,1.4,0.5c0.3,0,0.7,0,1-0.1c0.3-0.1,0.6-0.2,1-0.4
	v0.8c-0.3,0.1-0.7,0.2-1,0.3c-0.3,0.1-0.7,0.1-1,0.1c-0.9,0-1.6-0.3-2.1-0.8c-0.5-0.5-0.8-1.2-0.8-2.1c0-0.9,0.2-1.6,0.7-2.1
	c0.5-0.5,1.1-0.8,2-0.8c0.7,0,1.3,0.2,1.7,0.7C83.2,531.6,83.4,532.2,83.4,533z M82.5,532.8c0-0.5-0.1-0.9-0.4-1.2
	c-0.3-0.3-0.6-0.4-1.1-0.4c-0.5,0-0.9,0.1-1.2,0.4s-0.5,0.7-0.5,1.2L82.5,532.8z"/>
<path id="DejaVuSans-110" d="M89.4,532.7v3.3h-0.9v-3.3c0-0.5-0.1-0.9-0.3-1.2c-0.2-0.3-0.5-0.4-0.9-0.4c-0.5,0-0.9,0.2-1.1,0.5
	c-0.3,0.3-0.4,0.7-0.4,1.3v3.1h-0.9v-5.5h0.9v0.8c0.2-0.3,0.5-0.6,0.8-0.7c0.3-0.2,0.6-0.2,1-0.2c0.6,0,1.1,0.2,1.4,0.6
	C89.3,531.4,89.4,531.9,89.4,532.7z"/>
<path id="DejaVuSans-32_1_" d="M90.3,536"/>
<path id="DejaVuSans-71" d="M99.4,535v-2h-1.6v-0.8h2.6v3.1c-0.4,0.3-0.8,0.5-1.3,0.6c-0.5,0.1-0.9,0.2-1.5,0.2c-1.1,0-2-0.3-2.7-1
	c-0.6-0.7-1-1.6-1-2.8c0-1.2,0.3-2.1,1-2.8c0.6-0.7,1.5-1,2.7-1c0.5,0,0.9,0.1,1.4,0.2c0.4,0.1,0.8,0.3,1.2,0.5v1.1
	c-0.4-0.3-0.8-0.5-1.2-0.7s-0.8-0.2-1.3-0.2c-0.9,0-1.6,0.2-2,0.7c-0.4,0.5-0.7,1.2-0.7,2.2c0,1,0.2,1.7,0.7,2.2
	c0.4,0.5,1.1,0.7,2,0.7c0.3,0,0.7,0,0.9-0.1C99,535.2,99.2,535.1,99.4,535z"/>
<path id="DejaVuSans-65" d="M104.6,529.7l-1.3,3.6h2.7L104.6,529.7z M104.1,528.7h1.1l2.8,7.3h-1l-0.7-1.9H103l-0.7,1.9h-1
	L104.1,528.7z"/>
<path id="DejaVuSans-84" d="M107.3,528.7h6.2v0.8h-2.6v6.5h-1v-6.5h-2.6V528.7z"/>
<path id="DejaVuSans-69" d="M114.4,528.7h4.6v0.8h-3.6v2.2h3.5v0.8h-3.5v2.6h3.7v0.8h-4.7V528.7z"/>
<path id="DejaVuSans-32_2_" d="M119.7,536"/>
<path id="DejaVuSans-40" d="M126,528.4c-0.4,0.7-0.8,1.5-1,2.2c-0.2,0.7-0.3,1.5-0.3,2.2c0,0.8,0.1,1.5,0.3,2.2
	c0.2,0.7,0.5,1.5,1,2.2h-0.8c-0.5-0.8-0.9-1.5-1.1-2.3c-0.2-0.7-0.4-1.5-0.4-2.2c0-0.7,0.1-1.5,0.4-2.2c0.2-0.7,0.6-1.5,1.1-2.3H126
	z"/>
<path id="DejaVuSans-71_1_" d="M132.7,535v-2h-1.6v-0.8h2.6v3.1c-0.4,0.3-0.8,0.5-1.3,0.6c-0.5,0.1-0.9,0.2-1.5,0.2
	c-1.1,0-2-0.3-2.7-1c-0.6-0.7-1-1.6-1-2.8c0-1.2,0.3-2.1,1-2.8c0.6-0.7,1.5-1,2.7-1c0.5,0,0.9,0.1,1.4,0.2c0.4,0.1,0.8,0.3,1.2,0.5
	v1.1c-0.4-0.3-0.8-0.5-1.2-0.7s-0.8-0.2-1.3-0.2c-0.9,0-1.6,0.2-2,0.7c-0.4,0.5-0.7,1.2-0.7,2.2c0,1,0.2,1.7,0.7,2.2
	c0.4,0.5,1.1,0.7,2,0.7c0.3,0,0.7,0,0.9-0.1C132.3,535.2,132.5,535.1,132.7,535z"/>
<path id="DejaVuSans-121" d="M137.8,536.5c-0.3,0.7-0.5,1.1-0.7,1.3c-0.2,0.2-0.6,0.3-1,0.3h-0.7v-0.8h0.5c0.2,0,0.4-0.1,0.6-0.2
	c0.1-0.1,0.3-0.4,0.5-0.8l0.2-0.4l-2.2-5.4h1l1.7,4.3l1.7-4.3h1L137.8,536.5z"/>
<path id="DejaVuSans-41" d="M141.3,528.4h0.8c0.5,0.8,0.9,1.5,1.1,2.3c0.2,0.7,0.4,1.5,0.4,2.2c0,0.7-0.1,1.5-0.4,2.2
	s-0.6,1.5-1.1,2.3h-0.8c0.4-0.7,0.8-1.5,1-2.2s0.3-1.5,0.3-2.2c0-0.8-0.1-1.5-0.3-2.2C142,529.9,141.7,529.2,141.3,528.4z"/>
<path id="m746d1cca53" class="st8" d="M-127.2,482.1h-3.5"/>
<path id="DejaVuSans-49" d="M-148.9,485h1.6v-5.6l-1.8,0.4v-0.9l1.7-0.4h1v6.5h1.6v0.8h-4.2V485z"/>
<path id="DejaVuSans-46_7_" d="M-142.7,484.6h1v1.2h-1V484.6z"/>
<path id="DejaVuSans-50_1_" d="M-138.7,485h3.4v0.8h-4.6V485c0.4-0.4,0.9-0.9,1.5-1.6c0.6-0.7,1.1-1.1,1.2-1.3
	c0.3-0.4,0.5-0.7,0.7-0.9c0.1-0.2,0.2-0.5,0.2-0.7c0-0.4-0.1-0.7-0.4-0.9c-0.3-0.2-0.6-0.4-1.1-0.4c-0.3,0-0.6,0.1-1,0.2
	c-0.3,0.1-0.7,0.3-1.1,0.5v-1c0.4-0.2,0.8-0.3,1.1-0.4c0.3-0.1,0.7-0.1,0.9-0.1c0.8,0,1.4,0.2,1.8,0.6c0.4,0.4,0.7,0.9,0.7,1.5
	c0,0.3-0.1,0.6-0.2,0.9c-0.1,0.3-0.3,0.6-0.6,0.9c-0.1,0.1-0.3,0.4-0.8,0.8C-137.3,483.6-137.9,484.2-138.7,485z"/>
<path id="m746d1cca53_1_" class="st8" d="M-127.2,399.8h-3.5"/>
<path id="DejaVuSans-49_1_" d="M-148.9,402.8h1.6v-5.6l-1.8,0.4v-0.9l1.7-0.4h1v6.5h1.6v0.8h-4.2V402.8z"/>
<path id="DejaVuSans-46_8_" d="M-142.7,402.3h1v1.2h-1V402.3z"/>
<path id="DejaVuSans-52_6_" d="M-136.8,397.2l-2.5,3.9h2.5V397.2z M-137.1,396.3h1.2v4.8h1v0.8h-1v1.7h-1v-1.7h-3.3v-1L-137.1,396.3
	z"/>
<path id="m746d1cca53_2_" class="st8" d="M-127.2,317.5h-3.5"/>
<path id="DejaVuSans-49_2_" d="M-148.9,320.5h1.6v-5.6l-1.8,0.4v-0.9l1.7-0.4h1v6.5h1.6v0.8h-4.2V320.5z"/>
<path id="DejaVuSans-46_9_" d="M-142.7,320.1h1v1.2h-1V320.1z"/>
<path id="DejaVuSans-54_2_" d="M-137.3,317.3c-0.4,0-0.8,0.2-1.1,0.5c-0.3,0.3-0.4,0.7-0.4,1.2c0,0.5,0.1,0.9,0.4,1.2
	c0.3,0.3,0.6,0.5,1.1,0.5s0.8-0.2,1.1-0.5c0.3-0.3,0.4-0.7,0.4-1.2c0-0.5-0.1-0.9-0.4-1.2C-136.5,317.4-136.8,317.3-137.3,317.3z
	 M-135.3,314.2v0.9c-0.2-0.1-0.5-0.2-0.8-0.3c-0.3-0.1-0.5-0.1-0.8-0.1c-0.7,0-1.1,0.2-1.5,0.7c-0.3,0.4-0.5,1.1-0.6,2
	c0.2-0.3,0.4-0.5,0.7-0.7c0.3-0.2,0.6-0.2,1-0.2c0.7,0,1.3,0.2,1.7,0.7c0.4,0.4,0.6,1,0.6,1.8c0,0.7-0.2,1.3-0.7,1.8
	c-0.4,0.5-1,0.7-1.8,0.7c-0.8,0-1.5-0.3-1.9-1c-0.4-0.6-0.7-1.6-0.7-2.8c0-1.2,0.3-2.1,0.8-2.8c0.5-0.7,1.3-1,2.2-1
	c0.2,0,0.5,0,0.8,0.1C-135.9,314-135.6,314.1-135.3,314.2z"/>
<path id="m746d1cca53_3_" class="st8" d="M-127.2,235.2h-3.5"/>
<path id="DejaVuSans-49_3_" d="M-148.9,238.2h1.6v-5.6l-1.8,0.4v-0.9l1.7-0.4h1v6.5h1.6v0.8h-4.2V238.2z"/>
<path id="DejaVuSans-46_10_" d="M-142.7,237.8h1v1.2h-1V237.8z"/>
<path id="DejaVuSans-56_1_" d="M-137.4,235.6c-0.5,0-0.8,0.1-1.1,0.4c-0.3,0.3-0.4,0.6-0.4,1c0,0.4,0.1,0.8,0.4,1
	c0.3,0.3,0.6,0.4,1.1,0.4s0.8-0.1,1.1-0.4c0.3-0.3,0.4-0.6,0.4-1c0-0.4-0.1-0.8-0.4-1C-136.6,235.7-136.9,235.6-137.4,235.6z
	 M-138.4,235.1c-0.4-0.1-0.8-0.3-1-0.6c-0.2-0.3-0.4-0.6-0.4-1.1c0-0.6,0.2-1,0.6-1.4c0.4-0.3,1-0.5,1.7-0.5c0.7,0,1.3,0.2,1.7,0.5
	s0.6,0.8,0.6,1.4c0,0.4-0.1,0.8-0.4,1.1c-0.2,0.3-0.6,0.5-1,0.6c0.5,0.1,0.8,0.3,1.1,0.7c0.3,0.3,0.4,0.7,0.4,1.2
	c0,0.7-0.2,1.3-0.6,1.6c-0.4,0.4-1,0.6-1.9,0.6c-0.8,0-1.4-0.2-1.9-0.6c-0.4-0.4-0.6-0.9-0.6-1.6c0-0.5,0.1-0.9,0.4-1.2
	C-139.2,235.5-138.9,235.2-138.4,235.1z M-138.7,233.6c0,0.4,0.1,0.7,0.4,0.9c0.2,0.2,0.6,0.3,1,0.3c0.4,0,0.8-0.1,1-0.3
	c0.2-0.2,0.4-0.5,0.4-0.9c0-0.4-0.1-0.7-0.4-0.9c-0.2-0.2-0.6-0.3-1-0.3c-0.4,0-0.8,0.1-1,0.3C-138.6,232.9-138.7,233.2-138.7,233.6
	z"/>
<path id="m746d1cca53_4_" class="st8" d="M-127.2,152.9h-3.5"/>
<path id="DejaVuSans-50_2_" d="M-148.2,155.9h3.4v0.8h-4.6v-0.8c0.4-0.4,0.9-0.9,1.5-1.6c0.6-0.7,1.1-1.1,1.2-1.3
	c0.3-0.4,0.5-0.7,0.7-0.9c0.1-0.2,0.2-0.5,0.2-0.7c0-0.4-0.1-0.7-0.4-0.9c-0.3-0.2-0.6-0.4-1.1-0.4c-0.3,0-0.6,0.1-1,0.2
	c-0.3,0.1-0.7,0.3-1.1,0.5v-1c0.4-0.2,0.8-0.3,1.1-0.4c0.3-0.1,0.7-0.1,0.9-0.1c0.8,0,1.4,0.2,1.8,0.6c0.4,0.4,0.7,0.9,0.7,1.5
	c0,0.3-0.1,0.6-0.2,0.9c-0.1,0.3-0.3,0.6-0.6,0.9c-0.1,0.1-0.3,0.4-0.8,0.8C-146.8,154.5-147.4,155.1-148.2,155.9z"/>
<path id="DejaVuSans-46_11_" d="M-142.7,155.5h1v1.2h-1V155.5z"/>
<path id="DejaVuSans-48_29_" d="M-137.4,150.1c-0.5,0-0.9,0.3-1.1,0.8c-0.3,0.5-0.4,1.3-0.4,2.3c0,1,0.1,1.7,0.4,2.2
	c0.3,0.5,0.6,0.8,1.1,0.8c0.5,0,0.9-0.3,1.2-0.8c0.3-0.5,0.4-1.2,0.4-2.2c0-1-0.1-1.8-0.4-2.3C-136.5,150.3-136.9,150.1-137.4,150.1
	z M-137.4,149.3c0.8,0,1.4,0.3,1.9,1c0.4,0.6,0.6,1.6,0.6,2.8c0,1.2-0.2,2.2-0.6,2.8c-0.4,0.6-1.1,1-1.9,1c-0.8,0-1.4-0.3-1.9-1
	c-0.4-0.6-0.6-1.6-0.6-2.8c0-1.2,0.2-2.2,0.6-2.8C-138.8,149.6-138.2,149.3-137.4,149.3z"/>
<path id="DejaVuSans-117" d="M-158.4,340.4h-3.3v-0.9h3.3c0.5,0,0.9-0.1,1.2-0.3c0.3-0.2,0.4-0.5,0.4-0.9c0-0.5-0.2-0.9-0.5-1.1
	c-0.3-0.3-0.7-0.4-1.3-0.4h-3.1v-0.9h5.5v0.9h-0.8c0.3,0.2,0.6,0.5,0.7,0.8c0.2,0.3,0.2,0.6,0.2,1c0,0.6-0.2,1.1-0.6,1.4
	C-157,340.2-157.6,340.4-158.4,340.4z"/>
<path id="DejaVuSans-110_1_" d="M-159.5,329.4h3.3v0.9h-3.3c-0.5,0-0.9,0.1-1.2,0.3c-0.3,0.2-0.4,0.5-0.4,0.9c0,0.5,0.2,0.9,0.5,1.1
	c0.3,0.3,0.7,0.4,1.3,0.4h3.1v0.9h-5.5v-0.9h0.9c-0.3-0.2-0.6-0.5-0.7-0.8c-0.2-0.3-0.2-0.6-0.2-1c0-0.6,0.2-1.1,0.6-1.4
	C-160.8,329.6-160.3,329.4-159.5,329.4z"/>
<path id="DejaVuSans-105_1_" d="M-161.7,327.6v-0.9h5.5v0.9H-161.7z M-163.8,327.6v-0.9h1.1v0.9H-163.8z"/>
<path id="DejaVuSans-100" d="M-160.8,321.3h-3v-0.9h7.6v0.9h-0.8c0.3,0.2,0.6,0.4,0.7,0.7c0.2,0.3,0.2,0.6,0.2,1
	c0,0.7-0.3,1.2-0.8,1.6c-0.5,0.4-1.2,0.6-2.1,0.6s-1.6-0.2-2.1-0.6c-0.5-0.4-0.8-1-0.8-1.6c0-0.4,0.1-0.8,0.2-1
	C-161.4,321.7-161.2,321.4-160.8,321.3z M-158.9,324.3c0.7,0,1.2-0.1,1.6-0.4c0.4-0.3,0.6-0.6,0.6-1.1s-0.2-0.8-0.6-1.1
	c-0.4-0.3-0.9-0.4-1.6-0.4s-1.2,0.1-1.6,0.4c-0.4,0.3-0.6,0.6-0.6,1.1s0.2,0.8,0.6,1.1C-160.1,324.2-159.6,324.3-158.9,324.3z"/>
<path id="DejaVuSans-97" d="M-158.9,316c0,0.7,0.1,1.2,0.2,1.5c0.2,0.3,0.4,0.4,0.9,0.4c0.3,0,0.6-0.1,0.8-0.3
	c0.2-0.2,0.3-0.5,0.3-0.9c0-0.5-0.2-0.9-0.5-1.2c-0.4-0.3-0.8-0.5-1.4-0.5h-0.2V316z M-159.3,314.2h3.1v0.9h-0.8
	c0.3,0.2,0.6,0.5,0.7,0.8c0.2,0.3,0.2,0.7,0.2,1.1c0,0.6-0.2,1-0.5,1.3c-0.3,0.3-0.7,0.5-1.3,0.5c-0.6,0-1.1-0.2-1.4-0.6
	c-0.3-0.4-0.5-1-0.5-1.8v-1.3h-0.1c-0.4,0-0.7,0.1-1,0.4c-0.2,0.3-0.3,0.7-0.3,1.1c0,0.3,0,0.6,0.1,0.9c0.1,0.3,0.2,0.6,0.3,0.9
	h-0.8c-0.1-0.3-0.2-0.6-0.3-1c-0.1-0.3-0.1-0.6-0.1-0.9c0-0.8,0.2-1.4,0.6-1.8C-160.8,314.4-160.2,314.2-159.3,314.2z"/>
<path id="DejaVuSans-100_1_" d="M-160.8,308.8h-3v-0.9h7.6v0.9h-0.8c0.3,0.2,0.6,0.4,0.7,0.7c0.2,0.3,0.2,0.6,0.2,1
	c0,0.7-0.3,1.2-0.8,1.6c-0.5,0.4-1.2,0.6-2.1,0.6s-1.6-0.2-2.1-0.6c-0.5-0.4-0.8-1-0.8-1.6c0-0.4,0.1-0.8,0.2-1
	C-161.4,309.2-161.2,309-160.8,308.8z M-158.9,311.8c0.7,0,1.2-0.1,1.6-0.4c0.4-0.3,0.6-0.6,0.6-1.1s-0.2-0.8-0.6-1.1
	c-0.4-0.3-0.9-0.4-1.6-0.4s-1.2,0.1-1.6,0.4c-0.4,0.3-0.6,0.6-0.6,1.1s0.2,0.8,0.6,1.1C-160.1,311.7-159.6,311.8-158.9,311.8z"/>
<path id="DejaVuSans-101_1_" d="M-159.2,301.3h0.4v4.1c0.6,0,1.1-0.2,1.4-0.6c0.3-0.3,0.5-0.8,0.5-1.4c0-0.3,0-0.7-0.1-1
	c-0.1-0.3-0.2-0.6-0.4-1h0.8c0.1,0.3,0.2,0.7,0.3,1c0.1,0.3,0.1,0.7,0.1,1c0,0.9-0.3,1.6-0.8,2.1c-0.5,0.5-1.2,0.8-2.1,0.8
	c-0.9,0-1.6-0.2-2.1-0.7c-0.5-0.5-0.8-1.1-0.8-2c0-0.7,0.2-1.3,0.7-1.7C-160.6,301.6-160,301.3-159.2,301.3z M-159.4,302.2
	c-0.5,0-0.9,0.1-1.2,0.4c-0.3,0.3-0.4,0.6-0.4,1.1c0,0.5,0.1,0.9,0.4,1.2c0.3,0.3,0.7,0.5,1.2,0.5L-159.4,302.2z"/>
<path id="DejaVuSans-115_2_" d="M-161.5,296.4h0.8c-0.1,0.3-0.2,0.5-0.3,0.8c-0.1,0.3-0.1,0.6-0.1,0.9c0,0.4,0.1,0.8,0.2,1
	c0.1,0.2,0.3,0.3,0.6,0.3c0.2,0,0.4-0.1,0.5-0.2c0.1-0.2,0.2-0.5,0.3-1l0.1-0.3c0.1-0.6,0.3-1.1,0.6-1.4c0.2-0.3,0.6-0.4,1-0.4
	c0.5,0,0.9,0.2,1.2,0.6c0.3,0.4,0.4,1,0.4,1.7c0,0.3,0,0.6-0.1,0.9c-0.1,0.3-0.1,0.7-0.3,1h-0.9c0.2-0.3,0.3-0.7,0.4-1
	c0.1-0.3,0.1-0.6,0.1-1c0-0.4-0.1-0.7-0.2-1c-0.1-0.2-0.3-0.3-0.6-0.3c-0.2,0-0.4,0.1-0.6,0.2c-0.1,0.2-0.3,0.5-0.4,1.1l-0.1,0.3
	c-0.1,0.6-0.3,1-0.5,1.2c-0.2,0.2-0.6,0.4-1,0.4c-0.5,0-0.9-0.2-1.2-0.5c-0.3-0.4-0.4-0.9-0.4-1.6c0-0.3,0-0.6,0.1-0.9
	C-161.7,296.9-161.6,296.6-161.5,296.4z"/>
<path id="DejaVuSans-32_3_" d="M-156.2,295.6"/>
<path id="DejaVuSans-101_2_" d="M-159.2,286.8h0.4v4.1c0.6,0,1.1-0.2,1.4-0.6c0.3-0.3,0.5-0.8,0.5-1.4c0-0.3,0-0.7-0.1-1
	c-0.1-0.3-0.2-0.6-0.4-1h0.8c0.1,0.3,0.2,0.7,0.3,1c0.1,0.3,0.1,0.7,0.1,1c0,0.9-0.3,1.6-0.8,2.1c-0.5,0.5-1.2,0.8-2.1,0.8
	c-0.9,0-1.6-0.2-2.1-0.7c-0.5-0.5-0.8-1.1-0.8-2c0-0.7,0.2-1.3,0.7-1.7C-160.6,287-160,286.8-159.2,286.8z M-159.4,287.7
	c-0.5,0-0.9,0.1-1.2,0.4c-0.3,0.3-0.4,0.6-0.4,1.1c0,0.5,0.1,0.9,0.4,1.2c0.3,0.3,0.7,0.5,1.2,0.5L-159.4,287.7z"/>
<path id="DejaVuSans-110_2_" d="M-159.5,280.8h3.3v0.9h-3.3c-0.5,0-0.9,0.1-1.2,0.3c-0.3,0.2-0.4,0.5-0.4,0.9c0,0.5,0.2,0.9,0.5,1.1
	c0.3,0.3,0.7,0.4,1.3,0.4h3.1v0.9h-5.5v-0.9h0.9c-0.3-0.2-0.6-0.5-0.7-0.8c-0.2-0.3-0.2-0.6-0.2-1c0-0.6,0.2-1.1,0.6-1.4
	C-160.8,280.9-160.3,280.8-159.5,280.8z"/>
<path id="DejaVuSans-32_4_" d="M-156.2,279.9"/>
<path id="DejaVuSans-71_2_" d="M-157.2,270.8h-2v1.6h-0.8v-2.6h3.1c0.3,0.4,0.5,0.8,0.6,1.3c0.1,0.5,0.2,0.9,0.2,1.5
	c0,1.1-0.3,2-1,2.7c-0.7,0.6-1.6,1-2.8,1c-1.2,0-2.1-0.3-2.8-1c-0.7-0.6-1-1.5-1-2.7c0-0.5,0.1-0.9,0.2-1.4c0.1-0.4,0.3-0.8,0.5-1.2
	h1.1c-0.3,0.4-0.5,0.8-0.7,1.2c-0.2,0.4-0.2,0.8-0.2,1.3c0,0.9,0.2,1.6,0.7,2c0.5,0.4,1.2,0.7,2.2,0.7c1,0,1.7-0.2,2.2-0.7
	c0.5-0.4,0.7-1.1,0.7-2c0-0.3,0-0.7-0.1-0.9C-157,271.3-157.1,271-157.2,270.8z"/>
<path id="DejaVuSans-65_1_" d="M-162.5,265.6l3.6,1.3v-2.7L-162.5,265.6z M-163.5,266.1V265l7.3-2.8v1l-1.9,0.7v3.3l1.9,0.7v1
	L-163.5,266.1z"/>
<path id="DejaVuSans-77" d="M-163.5,261.2v-1.5l5-1.9l-5-1.9v-1.5h7.3v1h-6.4l5,1.9v1l-5,1.9h6.4v1H-163.5z"/>
<path id="DejaVuSans-79" d="M-162.8,249.6c0,0.7,0.3,1.3,0.8,1.7c0.5,0.4,1.3,0.6,2.2,0.6c0.9,0,1.6-0.2,2.2-0.6
	c0.5-0.4,0.8-1,0.8-1.7c0-0.7-0.3-1.3-0.8-1.7c-0.5-0.4-1.3-0.6-2.2-0.6c-0.9,0-1.6,0.2-2.2,0.6
	C-162.6,248.3-162.8,248.9-162.8,249.6z M-163.6,249.6c0-1,0.3-1.8,1-2.4c0.7-0.6,1.6-0.9,2.8-0.9c1.1,0,2.1,0.3,2.8,0.9
	c0.7,0.6,1,1.4,1,2.4c0,1-0.3,1.8-1,2.5c-0.7,0.6-1.6,0.9-2.8,0.9s-2.1-0.3-2.8-0.9C-163.3,251.4-163.6,250.6-163.6,249.6z"/>
<path id="DejaVuSans-83" d="M-163.3,240.3h1c-0.2,0.4-0.3,0.7-0.4,1.1c-0.1,0.3-0.1,0.7-0.1,1c0,0.5,0.1,1,0.3,1.2
	c0.2,0.3,0.5,0.4,0.9,0.4c0.3,0,0.6-0.1,0.7-0.3c0.2-0.2,0.3-0.6,0.4-1.1l0.1-0.6c0.1-0.7,0.4-1.3,0.7-1.6c0.4-0.4,0.8-0.5,1.4-0.5
	c0.7,0,1.2,0.2,1.6,0.7c0.4,0.5,0.5,1.2,0.5,2.1c0,0.3,0,0.7-0.1,1.1c-0.1,0.4-0.2,0.8-0.3,1.2h-1c0.2-0.4,0.4-0.8,0.5-1.2
	c0.1-0.4,0.2-0.8,0.2-1.1c0-0.6-0.1-1-0.3-1.3c-0.2-0.3-0.5-0.5-0.9-0.5c-0.4,0-0.6,0.1-0.8,0.3c-0.2,0.2-0.4,0.6-0.5,1.1l-0.1,0.6
	c-0.1,0.7-0.4,1.3-0.7,1.6c-0.3,0.3-0.7,0.5-1.3,0.5c-0.6,0-1.2-0.2-1.5-0.7s-0.6-1.1-0.6-1.9c0-0.3,0-0.7,0.1-1
	C-163.5,241.1-163.4,240.7-163.3,240.3z"/>
<path id="DejaVuSans-49_4_" d="M-126,69h1.6v-5.6l-1.8,0.4v-0.9l1.7-0.4h1V69h1.6v0.8h-4.2V69z"/>
<path id="DejaVuSans-101_3_" d="M-115.2,66.9v0.4h-4.1c0,0.6,0.2,1.1,0.6,1.4c0.3,0.3,0.8,0.5,1.4,0.5c0.3,0,0.7,0,1-0.1
	s0.6-0.2,1-0.4v0.8c-0.3,0.1-0.7,0.2-1,0.3c-0.3,0.1-0.7,0.1-1,0.1c-0.9,0-1.6-0.3-2.1-0.8c-0.5-0.5-0.8-1.2-0.8-2.1
	c0-0.9,0.2-1.6,0.7-2.1c0.5-0.5,1.1-0.8,2-0.8c0.7,0,1.3,0.2,1.7,0.7C-115.5,65.4-115.2,66.1-115.2,66.9z M-116.1,66.6
	c0-0.5-0.1-0.9-0.4-1.2c-0.3-0.3-0.6-0.4-1.1-0.4c-0.5,0-0.9,0.1-1.2,0.4s-0.5,0.7-0.5,1.2L-116.1,66.6z"/>
<path id="DejaVuSans-8722" d="M-113.6,66.3h6.3v0.8h-6.3V66.3z"/>
<path id="DejaVuSans-49_5_" d="M-105.1,69h1.6v-5.6l-1.8,0.4v-0.9l1.7-0.4h1V69h1.6v0.8h-4.2V69z"/>
<path id="DejaVuSans-50_3_" d="M-98,69h3.4v0.8h-4.6V69c0.4-0.4,0.9-0.9,1.5-1.6c0.6-0.7,1.1-1.1,1.2-1.3c0.3-0.4,0.5-0.7,0.7-0.9
	c0.1-0.2,0.2-0.5,0.2-0.7c0-0.4-0.1-0.7-0.4-0.9c-0.3-0.2-0.6-0.4-1.1-0.4c-0.3,0-0.6,0.1-1,0.2c-0.3,0.1-0.7,0.3-1.1,0.5v-1
	c0.4-0.2,0.8-0.3,1.1-0.4c0.3-0.1,0.7-0.1,0.9-0.1c0.8,0,1.4,0.2,1.8,0.6c0.4,0.4,0.7,0.9,0.7,1.5c0,0.3-0.1,0.6-0.2,0.9
	c-0.1,0.3-0.3,0.6-0.6,0.9c-0.1,0.1-0.3,0.4-0.8,0.8C-96.6,67.6-97.2,68.2-98,69z"/>
<g>
	<defs>
		<rect id="SVGID_5_" x="-127.2" y="72.8" width="446.4" height="434.9"/>
	</defs>
	<clipPath id="SVGID_6_">
		<use xlink:href="#SVGID_5_"  style="overflow:visible;"/>
	</clipPath>
	<path class="st9" d="M-19.9,409.7h4.5"/>
</g>
<g>
	<defs>
		<rect id="SVGID_7_" x="-127.2" y="72.8" width="446.4" height="434.9"/>
	</defs>
	<clipPath id="SVGID_8_">
		<use xlink:href="#SVGID_7_"  style="overflow:visible;"/>
	</clipPath>
	<path class="st10" d="M-68.4,444.1h11"/>
</g>
<g>
	<defs>
		<rect id="SVGID_9_" x="-127.2" y="72.8" width="446.4" height="434.9"/>
	</defs>
	<clipPath id="SVGID_10_">
		<use xlink:href="#SVGID_9_"  style="overflow:visible;"/>
	</clipPath>
	<path class="st11" d="M-106.9,472.4h12.3"/>
</g>
<g>
	<defs>
		<rect id="SVGID_11_" x="-127.2" y="72.8" width="446.4" height="434.9"/>
	</defs>
	<clipPath id="SVGID_12_">
		<use xlink:href="#SVGID_11_"  style="overflow:visible;"/>
	</clipPath>
	<path class="st12" d="M122.5,290.6h9.5"/>
</g>
<g>
	<defs>
		<rect id="SVGID_13_" x="-127.2" y="72.8" width="446.4" height="434.9"/>
	</defs>
	<clipPath id="SVGID_14_">
		<use xlink:href="#SVGID_13_"  style="overflow:visible;"/>
	</clipPath>
	<path class="st13" d="M72.5,338h10.1"/>
</g>
<g>
	<defs>
		<rect id="SVGID_15_" x="-127.2" y="72.8" width="446.4" height="434.9"/>
	</defs>
	<clipPath id="SVGID_16_">
		<use xlink:href="#SVGID_15_"  style="overflow:visible;"/>
	</clipPath>
	<path class="st14" d="M20.7,377.6h12.2"/>
</g>
<g>
	<defs>
		<rect id="SVGID_17_" x="-127.2" y="72.8" width="446.4" height="434.9"/>
	</defs>
	<clipPath id="SVGID_18_">
		<use xlink:href="#SVGID_17_"  style="overflow:visible;"/>
	</clipPath>
	<path class="st15" d="M285.9,98.7h13"/>
</g>
<g>
	<defs>
		<rect id="SVGID_19_" x="-127.2" y="72.8" width="446.4" height="434.9"/>
	</defs>
	<clipPath id="SVGID_20_">
		<use xlink:href="#SVGID_19_"  style="overflow:visible;"/>
	</clipPath>
	<path class="st16" d="M228.6,170.3h11.6"/>
</g>
<g>
	<defs>
		<rect id="SVGID_21_" x="-127.2" y="72.8" width="446.4" height="434.9"/>
	</defs>
	<clipPath id="SVGID_22_">
		<use xlink:href="#SVGID_21_"  style="overflow:visible;"/>
	</clipPath>
	<path class="st17" d="M172.5,239.3h14.7"/>
</g>
<g>
	<defs>
		<rect id="SVGID_23_" x="-127.2" y="72.8" width="446.4" height="434.9"/>
	</defs>
	<clipPath id="SVGID_24_">
		<use xlink:href="#SVGID_23_"  style="overflow:visible;"/>
	</clipPath>
	<path class="st18" d="M-17.6,416.2v-13.1"/>
</g>
<g>
	<defs>
		<rect id="SVGID_25_" x="-127.2" y="72.8" width="446.4" height="434.9"/>
	</defs>
	<clipPath id="SVGID_26_">
		<use xlink:href="#SVGID_25_"  style="overflow:visible;"/>
	</clipPath>
	<path class="st19" d="M-62.9,450.7v-13.3"/>
</g>
<g>
	<defs>
		<rect id="SVGID_27_" x="-127.2" y="72.8" width="446.4" height="434.9"/>
	</defs>
	<clipPath id="SVGID_28_">
		<use xlink:href="#SVGID_27_"  style="overflow:visible;"/>
	</clipPath>
	<path class="st20" d="M-100.8,477.2v-9.6"/>
</g>
<g>
	<defs>
		<rect id="SVGID_29_" x="-127.2" y="72.8" width="446.4" height="434.9"/>
	</defs>
	<clipPath id="SVGID_30_">
		<use xlink:href="#SVGID_29_"  style="overflow:visible;"/>
	</clipPath>
	<path class="st21" d="M127.3,301.3V280"/>
</g>
<g>
	<defs>
		<rect id="SVGID_31_" x="-127.2" y="72.8" width="446.4" height="434.9"/>
	</defs>
	<clipPath id="SVGID_32_">
		<use xlink:href="#SVGID_31_"  style="overflow:visible;"/>
	</clipPath>
	<path class="st22" d="M77.5,343.8v-11.6"/>
</g>
<g>
	<defs>
		<rect id="SVGID_33_" x="-127.2" y="72.8" width="446.4" height="434.9"/>
	</defs>
	<clipPath id="SVGID_34_">
		<use xlink:href="#SVGID_33_"  style="overflow:visible;"/>
	</clipPath>
	<path class="st23" d="M26.7,383.4v-11.5"/>
</g>
<g>
	<defs>
		<rect id="SVGID_35_" x="-127.2" y="72.8" width="446.4" height="434.9"/>
	</defs>
	<clipPath id="SVGID_36_">
		<use xlink:href="#SVGID_35_"  style="overflow:visible;"/>
	</clipPath>
	<path class="st24" d="M292.4,104.9V92.6"/>
</g>
<g>
	<defs>
		<rect id="SVGID_37_" x="-127.2" y="72.8" width="446.4" height="434.9"/>
	</defs>
	<clipPath id="SVGID_38_">
		<use xlink:href="#SVGID_37_"  style="overflow:visible;"/>
	</clipPath>
	<path class="st25" d="M234.4,179.1v-17.6"/>
</g>
<g>
	<defs>
		<rect id="SVGID_39_" x="-127.2" y="72.8" width="446.4" height="434.9"/>
	</defs>
	<clipPath id="SVGID_40_">
		<use xlink:href="#SVGID_39_"  style="overflow:visible;"/>
	</clipPath>
	<path class="st26" d="M179.9,244.4v-10.3"/>
</g>
<path class="st27" d="M-127.2,507.7V72.8"/>
<path class="st27" d="M319.2,507.7V72.8"/>
<path class="st28" d="M-127.2,507.7h446.4"/>
<path class="st27" d="M-127.2,72.8h446.4"/>
<path class="st29" d="M-119.1,102h394c1.4,0,2.1-0.7,2.1-2V86.4c0-1.3-0.7-2-2.1-2h-394c-1.4,0-2.1,0.7-2.1,2V100
	C-121.2,101.4-120.5,102-119.1,102z"/>
<path class="st30" d="M-113.8,92.5h36.7"/>
<path id="DejaVuSans-32_5_" d="M4.9,89.4"/>
<path id="DejaVuSans-32_6_" d="M16.5,89.4"/>
<rect x="79.2" y="55.6" class="st1" width="55.3" height="13.7"/>
<text transform="matrix(1 0 0 1 79.1523 63.9406)" class="st31 st32 st33">Calibracin</text>
<g id="page1" transform="matrix(1.13 0 0 1.13 -63.986043 -62.969593)">
	
		<image style="overflow:visible;opacity:0.55;" width="336" height="34" xlink:href="5197B189.png"  transform="matrix(0.885 0 0 0.885 -7.538 123.6687)">
	</image>
	<g>
		<g>
			<g>
				<path id="g2-71_12_" class="st34" d="M9.8,133.3c0-0.1-0.1-0.1-0.1-0.1s-0.1,0-0.2,0.1l-1,1c-0.1-0.1-0.3-0.5-0.9-0.8
					c-0.6-0.3-1.2-0.3-1.4-0.3c-3,0-6.1,2.6-6.1,5.3c0,1.9,1.6,3.2,3.7,3.2c1,0,2.3-0.3,3-1c0.2,0.4,0.5,0.8,0.6,0.8
					c0.1,0,0.1,0,0.1,0c0,0,0.1-0.4,0.2-0.6l0.2-0.8c0.1-0.4,0.2-0.6,0.3-0.9c0.1-0.4,0.2-0.5,0.9-0.5c0.1,0,0.2,0,0.2-0.2
					c0-0.1-0.1-0.1-0.2-0.1c-0.2,0-0.5,0-0.8,0H7.6c-0.6,0-1.2,0-1.8,0c-0.1,0-0.3,0-0.3,0.2c0,0.1,0.1,0.1,0.1,0.1H6
					c1.1,0,1.1,0.1,1.1,0.3c0,0-0.3,1.2-0.5,1.5c-0.5,0.7-1.6,0.9-2.4,0.9c-1.1,0-2.8-0.5-2.8-2.5c0-0.8,0.3-2.6,1.7-3.9
					c0.9-0.8,2.2-1.4,3.4-1.4c1.6,0,2.2,1.2,2.2,2.3c0,0.2-0.1,0.4-0.1,0.6c0,0.1,0.1,0.1,0.2,0.1c0.2,0,0.2,0,0.2-0.2L9.8,133.3z"
					/>
			</g>
			<g>
				<path id="g2-65_12_" class="st34" d="M12.5,140.1c-0.5,0.7-1,0.9-1.6,1c-0.2,0-0.3,0-0.3,0.2c0,0.1,0.1,0.1,0.2,0.1
					c0.3,0,0.9,0,1.1,0c0.4,0,0.8,0,1.2,0c0.1,0,0.3,0,0.3-0.2c0-0.1-0.1-0.1-0.2-0.1c-0.3,0-0.6-0.1-0.6-0.4c0-0.2,0.1-0.3,0.3-0.6
					l1.1-1.5h3.5c0,0.1,0,0.2,0,0.3c0,0.3,0.2,1.5,0.2,1.7c0,0.4-0.7,0.4-0.9,0.4c-0.2,0-0.3,0-0.3,0.2c0,0.1,0.1,0.1,0.2,0.1
					c0.2,0,0.5,0,0.8,0h0.8c0.8,0,1.5,0,1.5,0c0.1,0,0.3,0,0.3-0.2c0-0.1-0.1-0.1-0.3-0.1c-0.8,0-0.8-0.1-0.8-0.5l-0.8-7.3
					c0-0.2-0.1-0.3-0.2-0.3c-0.1,0-0.2,0-0.3,0.2L12.5,140.1z M14.2,138.3l2.8-3.9l0.5,3.9H14.2z"/>
			</g>
			<g>
				<path id="g2-77_12_" class="st34" d="M33,134.3c0.1-0.4,0.2-0.5,1.1-0.5c0.3,0,0.4,0,0.4-0.2c0-0.1-0.1-0.1-0.4-0.1h-1.7
					c-0.3,0-0.4,0-0.5,0.2l-5.1,6.8l-1-6.7c0-0.3-0.1-0.3-0.4-0.3h-1.7c-0.3,0-0.4,0-0.4,0.2c0,0.1,0.1,0.1,0.3,0.1
					c0.8,0,0.8,0.1,0.8,0.2c0,0,0,0.1-0.1,0.3l-1.8,6c-0.2,0.6-0.5,0.8-1.4,0.9c0,0-0.2,0-0.2,0.2c0,0.1,0.1,0.1,0.2,0.1
					c0.3,0,1,0,1.3,0h0.7c0.2,0,0.4,0,0.6,0c0.1,0,0.3,0,0.3-0.2c0-0.1-0.1-0.1-0.2-0.1c-0.5,0-0.9-0.1-0.9-0.5c0-0.1,0-0.1,0.1-0.3
					l1.9-6.5h0l1.2,7.3c0,0.3,0.1,0.3,0.2,0.3c0.2,0,0.2-0.1,0.3-0.2l5.6-7.5h0l-2,6.8c-0.1,0.4-0.2,0.5-1.1,0.5
					c-0.3,0-0.4,0-0.4,0.2c0,0.1,0.1,0.1,0.2,0.1c0.2,0,0.5,0,0.8,0h1.6c0.2,0,0.5,0,0.8,0c0.1,0,0.3,0,0.3-0.2
					c0-0.1-0.1-0.1-0.3-0.1c-0.8,0-0.8-0.1-0.8-0.2c0,0,0-0.1,0-0.2L33,134.3z"/>
			</g>
			<g>
				<path id="g2-79_12_" class="st34" d="M45.1,136.3c0-1.9-1.5-3.1-3.4-3.1c-3,0-6,2.7-6,5.4c0,1.8,1.4,3.1,3.5,3.1
					C42,141.7,45.1,139.1,45.1,136.3z M39.2,141.4c-1.1,0-2.3-0.7-2.3-2.5c0-1.1,0.5-2.8,1.6-4c1-1,2.2-1.5,3.1-1.5
					c1.2,0,2.4,0.8,2.4,2.4c0,1-0.5,2.7-1.5,3.8C41.5,140.8,40.2,141.4,39.2,141.4z"/>
			</g>
			<g>
				<path id="g2-83_12_" class="st34" d="M54.6,133.3c0-0.1-0.1-0.1-0.1-0.1c-0.1,0-0.1,0-0.2,0.2c-0.1,0.1-0.7,0.7-0.7,0.7
					c-0.5-0.8-1.4-0.9-2-0.9c-1.8,0-3.4,1.4-3.4,2.7c0,0.9,0.6,1.4,1.3,1.6c0.2,0,1,0.2,1.4,0.3c0.7,0.2,0.9,0.2,1.2,0.5
					c0.1,0.1,0.3,0.3,0.3,0.9c0,1.1-1.2,2.2-2.6,2.2c-1.1,0-2.4-0.4-2.4-1.7c0-0.2,0.1-0.5,0.1-0.6c0,0,0-0.1,0-0.1
					c0,0,0-0.1-0.1-0.1c-0.1,0-0.1,0-0.2,0.2l-0.7,2.4c0,0-0.1,0.2-0.1,0.2c0,0.1,0.1,0.1,0.1,0.1c0.1,0,0.1,0,0.2-0.2l0.6-0.7
					c0.3,0.4,1.1,0.9,2.3,0.9c1.8,0,3.4-1.5,3.4-2.9c0-0.5-0.1-0.9-0.7-1.4c-0.3-0.2-0.5-0.3-1.8-0.6c-0.9-0.2-1.1-0.2-1.3-0.4
					c-0.2-0.2-0.4-0.5-0.4-0.9c0-1,1.2-2,2.5-2c1.4,0,2,0.7,2,1.8c0,0.3-0.1,0.6-0.1,0.7c0,0.1,0.1,0.1,0.2,0.1c0.1,0,0.1,0,0.2-0.2
					L54.6,133.3z"/>
			</g>
			<g>
				<path id="g4-61_12_" class="st34" d="M68.2,137.6c0.2,0,0.4,0,0.4-0.2c0-0.2-0.2-0.2-0.4-0.2H60c-0.2,0-0.4,0-0.4,0.2
					c0,0.2,0.2,0.2,0.4,0.2H68.2z M68.2,139.8c0.2,0,0.4,0,0.4-0.2c0-0.2-0.2-0.2-0.4-0.2H60c-0.2,0-0.4,0-0.4,0.2
					c0,0.2,0.2,0.2,0.4,0.2H68.2z"/>
			</g>
			<g>
				<path id="g4-40_12_" class="st34" d="M77.8,144.3c0,0,0-0.1-0.2-0.3c-1.4-1.2-2.2-3.1-2.2-5.5c0-2.3,0.7-4.2,2.3-5.6
					c0.1-0.1,0.1-0.1,0.1-0.2c0-0.1-0.1-0.1-0.1-0.1c-0.2,0-1.3,0.8-2,2c-0.7,1.2-1,2.4-1,3.9c0,1,0.2,2.4,0.9,3.7
					c0.8,1.4,2,2.2,2.1,2.2C77.7,144.4,77.8,144.3,77.8,144.3z"/>
			</g>
			<g>
				<path id="g4-55_12_" class="st34" d="M85.2,134.1v-0.3h-3.4c-1.7,0-1.7-0.2-1.8-0.4h-0.3l-0.4,2.3h0.3c0-0.2,0.2-0.9,0.3-1.1
					c0.1-0.1,1.2-0.1,1.3-0.1h2.9l-1.5,1.8c-0.4,0.5-1.8,2.4-1.8,4.6c0,0.1,0,0.6,0.6,0.6c0.6,0,0.6-0.5,0.6-0.6v-0.6
					c0-1.7,0.3-3.1,1-3.9L85.2,134.1z"/>
			</g>
			<g>
				<path id="g2-59_25_" class="st34" d="M88.1,141.5c0-0.7-0.3-1.2-0.8-1.2c-0.4,0-0.7,0.3-0.7,0.6c0,0.3,0.2,0.6,0.7,0.6
					c0.2,0,0.3,0,0.5-0.2c0,0,0,0,0.1,0c0,0,0,0.2,0,0.2c0,0.4-0.1,1.1-0.9,1.9c-0.2,0.1-0.2,0.2-0.2,0.2c0,0.1,0.1,0.1,0.1,0.1
					C87,143.7,88.1,142.8,88.1,141.5z"/>
			</g>
			<g>
				<path id="g4-49_51_" class="st34" d="M95.5,133.9c0-0.3,0-0.3-0.3-0.3c-0.3,0.3-1,0.8-2.5,0.8v0.3c0.3,0,1,0,1.8-0.3v6.1
					c0,0.4,0,0.6-1.3,0.6h-0.4v0.3c0.4,0,1.7,0,2.2,0c0.5,0,1.8,0,2.2,0v-0.3h-0.4c-1.2,0-1.3-0.1-1.3-0.6V133.9z"/>
			</g>
			<g>
				<path id="g4-57_12_" class="st34" d="M103.4,138c0,2.8-1.5,3.3-2.3,3.3c-0.3,0-1.1,0-1.4-0.4h0.1c0.1,0,0.6,0,0.6-0.5
					c0-0.3-0.2-0.5-0.6-0.5s-0.6,0.2-0.6,0.5c0,0.7,0.7,1.2,1.9,1.2c1.7,0,3.4-1.6,3.4-4.1c0-3.2-1.6-3.9-2.8-3.9
					c-1.5,0-2.9,1.1-2.9,2.6c0,1.5,1.3,2.6,2.7,2.6c1,0,1.6-0.6,1.8-1.2V138z M101.6,138.6c-0.9,0-1.3-0.6-1.4-0.8
					c-0.2-0.4-0.2-1-0.2-1.5c0-0.7,0-1.2,0.4-1.7c0.3-0.3,0.6-0.7,1.4-0.7c0.8,0,1.2,0.6,1.3,0.9c0.3,0.6,0.3,1.6,0.3,1.7
					C103.3,137.5,102.8,138.6,101.6,138.6z"/>
			</g>
			<g>
				<path id="g1-2_25_" class="st34" d="M113.6,138.2l-2.8-2.3c-0.2-0.1-0.2-0.2-0.3-0.2c-0.1,0-0.3,0.1-0.3,0.2
					c0,0.1,0,0.1,0.2,0.2l2.8,2.4l-2.8,2.4c-0.2,0.1-0.2,0.2-0.2,0.2c0,0.1,0.1,0.2,0.3,0.2c0.1,0,0.1,0,0.3-0.2l2.8-2.3l2.9,2.4
					c0,0,0.1,0.1,0.2,0.1c0.2,0,0.3-0.1,0.3-0.2c0,0,0-0.1,0-0.1c0,0-2.2-1.9-2.9-2.5l2.5-2.1c0.1-0.1,0.3-0.2,0.3-0.3
					c0,0,0.1-0.1,0.1-0.2c0-0.1-0.1-0.2-0.3-0.2c-0.1,0-0.2,0-0.3,0.2L113.6,138.2z"/>
			</g>
			<g>
				<path id="g4-49_50_" class="st34" d="M126.1,133.9c0-0.3,0-0.3-0.3-0.3c-0.3,0.3-1,0.8-2.5,0.8v0.3c0.3,0,1,0,1.8-0.3v6.1
					c0,0.4,0,0.6-1.3,0.6h-0.4v0.3c0.4,0,1.7,0,2.2,0c0.5,0,1.8,0,2.2,0v-0.3h-0.4c-1.2,0-1.3-0.1-1.3-0.6V133.9z"/>
			</g>
			<g>
				<path id="g4-48_38_" class="st34" d="M135.1,137.7c0-1-0.1-1.9-0.6-2.8c-0.6-1-1.6-1.2-2.3-1.2c-0.8,0-1.8,0.3-2.3,1.3
					c-0.4,0.7-0.5,1.5-0.5,2.7c0,1.1,0.1,2,0.6,2.8c0.5,0.9,1.5,1.2,2.2,1.2c1.2,0,1.9-0.6,2.3-1.3
					C135.1,139.5,135.1,138.3,135.1,137.7z M132.3,141.4c-0.4,0-1.3-0.2-1.6-1.5c-0.2-0.7-0.2-1.6-0.2-2.4c0-1,0-1.8,0.2-2.5
					c0.2-0.8,0.9-1.1,1.5-1.1c0.5,0,1.3,0.3,1.6,1.3c0.2,0.7,0.2,1.6,0.2,2.4c0,0.8,0,1.7-0.2,2.4
					C133.6,141.2,132.7,141.4,132.3,141.4z"/>
			</g>
			<g>
				<path id="g0-0_25_" class="st34" d="M142.1,134.8c0.1,0,0.4,0,0.4-0.2c0-0.2-0.2-0.2-0.4-0.2h-5.3c-0.1,0-0.4,0-0.4,0.2
					c0,0.2,0.2,0.2,0.4,0.2H142.1z"/>
			</g>
			<g>
				<path id="g3-57_12_" class="st34" d="M147,134.3c0,1.9-1.1,2.2-1.6,2.2c-0.2,0-0.7,0-0.9-0.3c0.4,0,0.4-0.3,0.4-0.4
					c0-0.2-0.2-0.4-0.4-0.4c-0.2,0-0.4,0.1-0.4,0.4c0,0.5,0.5,0.9,1.4,0.9c1.3,0,2.5-1.1,2.5-2.7c0-2-1.1-2.6-2-2.6
					c-1.1,0-2.1,0.7-2.1,1.7c0,1,0.9,1.7,1.9,1.7c0.7,0,1.1-0.4,1.3-0.8V134.3z M145.7,134.6c-0.4,0-0.7-0.2-0.9-0.5
					c-0.2-0.3-0.2-0.7-0.2-1.1c0-0.5,0-0.8,0.3-1.1c0.2-0.3,0.5-0.4,1-0.4c0.6,0,0.9,0.5,0.9,0.6c0.2,0.4,0.2,1,0.2,1.1
					C146.9,133.9,146.5,134.6,145.7,134.6z"/>
			</g>
			<g>
				<path id="g4-41_12_" class="st34" d="M152.8,138.5c0-0.9-0.1-2.3-0.9-3.7c-0.8-1.4-2-2.2-2.1-2.2c-0.1,0-0.1,0-0.1,0.1
					c0,0,0,0.1,0.2,0.3c1.4,1.2,2.2,3.1,2.2,5.5c0,2.3-0.7,4.2-2.3,5.6c-0.1,0.1-0.1,0.1-0.1,0.2c0,0.1,0.1,0.1,0.1,0.1
					c0.2,0,1.3-0.8,2-2C152.4,141.2,152.8,139.9,152.8,138.5z"/>
			</g>
			<g>
				<path id="g2-68_12_" class="st34" d="M156.3,140.6c-0.1,0.4-0.2,0.5-1.1,0.5c-0.3,0-0.4,0-0.4,0.2c0,0.1,0.1,0.1,0.4,0.1h4.4
					c2.8,0,5.5-2.4,5.5-5.1c0-1.7-1.2-2.9-3.2-2.9h-4.5c-0.3,0-0.4,0-0.4,0.2c0,0.1,0.1,0.1,0.3,0.1c0.8,0,0.8,0.1,0.8,0.2
					c0,0,0,0.1-0.1,0.3L156.3,140.6z M159.2,134.2c0.1-0.4,0.2-0.5,0.7-0.5h1.5c1.3,0,2.5,0.6,2.5,2.2c0,0.6-0.3,2.6-1.6,3.9
					c-0.4,0.4-1.4,1.2-3,1.2h-1.6c-0.2,0-0.2,0-0.3,0c-0.2,0-0.2,0-0.2-0.1c0-0.1,0-0.2,0.1-0.3L159.2,134.2z"/>
			</g>
			<g>
				<path id="g2-111_12_" class="st34" d="M172.1,138.2c0-1.1-0.9-1.9-2.1-1.9c-1.8,0-3.6,1.7-3.6,3.3c0,1.1,0.9,1.9,2.1,1.9
					C170.4,141.5,172.1,139.8,172.1,138.2z M168.5,141.3c-0.7,0-1.2-0.5-1.2-1.3c0-0.5,0.3-1.7,0.7-2.3c0.6-0.9,1.4-1.2,2-1.2
					c0.7,0,1.2,0.5,1.2,1.3c0,0.5-0.3,1.7-0.8,2.4C169.8,141,169.1,141.3,168.5,141.3z"/>
			</g>
			<g>
				<path id="g2-115_25_" class="st34" d="M175.5,139.1c0.2,0,0.6,0.1,0.7,0.1c0.2,0,0.8,0.2,0.8,0.8c0,0.4-0.4,1.3-2,1.3
					c-0.3,0-1.3,0-1.6-0.7c0.6,0.1,0.8-0.3,0.8-0.6c0-0.2-0.2-0.4-0.5-0.4c-0.3,0-0.7,0.2-0.7,0.7c0,0.7,0.8,1.1,1.9,1.1
					c2.1,0,2.7-1.3,2.7-1.9c0-0.2,0-0.5-0.4-0.9c-0.3-0.3-0.7-0.3-1.4-0.5c-0.4-0.1-1-0.2-1-0.7c0-0.2,0.3-1.1,1.6-1.1
					c0.6,0,1.2,0.2,1.3,0.6c-0.6,0-0.6,0.4-0.6,0.5c0,0.2,0.3,0.3,0.4,0.3c0.2,0,0.6-0.1,0.6-0.6s-0.5-1-1.6-1
					c-1.8,0-2.3,1.2-2.3,1.7C174.2,138.8,175.2,139,175.5,139.1z"/>
			</g>
			<g>
				<path id="g2-105_12_" class="st34" d="M182.7,139.7c0-0.1-0.1-0.1-0.1-0.1c-0.1,0-0.1,0-0.2,0.2c-0.4,1.1-0.9,1.4-1.4,1.4
					c-0.2,0-0.4,0-0.4-0.4c0-0.3,0.2-0.7,0.3-1l1-2.2c0-0.1,0.1-0.3,0.1-0.5c0-0.5-0.4-0.9-1.1-0.9c-1.3,0-1.8,1.7-1.8,1.8
					c0,0,0.1,0.1,0.2,0.1c0.1,0,0.1,0,0.2-0.2c0.3-1,0.9-1.5,1.4-1.5c0.1,0,0.4,0,0.4,0.4c0,0.3-0.2,0.7-0.3,0.9l-1,2.2
					c-0.1,0.2-0.2,0.4-0.2,0.6c0,0.5,0.4,0.9,1.1,0.9C182.2,141.5,182.7,139.8,182.7,139.7z M182.6,134.1c0-0.2-0.2-0.4-0.5-0.4
					c-0.3,0-0.7,0.3-0.7,0.6c0,0.3,0.3,0.4,0.5,0.4C182.3,134.7,182.6,134.4,182.6,134.1z"/>
			</g>
			<g>
				<path id="g2-115_24_" class="st34" d="M186.6,139.1c0.2,0,0.6,0.1,0.7,0.1c0.2,0,0.8,0.2,0.8,0.8c0,0.4-0.4,1.3-2,1.3
					c-0.3,0-1.3,0-1.6-0.7c0.6,0.1,0.8-0.3,0.8-0.6c0-0.2-0.2-0.4-0.5-0.4c-0.3,0-0.7,0.2-0.7,0.7c0,0.7,0.8,1.1,1.9,1.1
					c2.1,0,2.7-1.3,2.7-1.9c0-0.2,0-0.5-0.4-0.9c-0.3-0.3-0.7-0.3-1.4-0.5c-0.4-0.1-1-0.2-1-0.7c0-0.2,0.3-1.1,1.6-1.1
					c0.6,0,1.2,0.2,1.3,0.6c-0.6,0-0.6,0.4-0.6,0.5c0,0.2,0.3,0.3,0.4,0.3c0.2,0,0.6-0.1,0.6-0.6s-0.5-1-1.6-1
					c-1.8,0-2.3,1.2-2.3,1.7C185.2,138.8,186.3,139,186.6,139.1z"/>
			</g>
			<g>
				<path id="g1-0_12_" class="st34" d="M202.1,138.7c0.2,0,0.5,0,0.5-0.2c0-0.2-0.3-0.2-0.5-0.2h-7.5c-0.2,0-0.5,0-0.5,0.2
					c0,0.2,0.3,0.2,0.5,0.2H202.1z"/>
			</g>
			<g>
				<path id="g4-49_49_" class="st34" d="M210.8,133.9c0-0.3,0-0.3-0.3-0.3c-0.3,0.3-1,0.8-2.5,0.8v0.3c0.3,0,1,0,1.8-0.3v6.1
					c0,0.4,0,0.6-1.3,0.6h-0.4v0.3c0.4,0,1.7,0,2.2,0s1.8,0,2.2,0v-0.3h-0.4c-1.2,0-1.3-0.1-1.3-0.6V133.9z"/>
			</g>
			<g>
				<path id="g2-59_24_" class="st34" d="M216.3,141.5c0-0.7-0.3-1.2-0.8-1.2c-0.4,0-0.7,0.3-0.7,0.6c0,0.3,0.2,0.6,0.7,0.6
					c0.2,0,0.3,0,0.5-0.2c0,0,0,0,0.1,0c0,0,0,0.2,0,0.2c0,0.4-0.1,1.1-0.9,1.9c-0.2,0.1-0.2,0.2-0.2,0.2c0,0.1,0.1,0.1,0.1,0.1
					C215.3,143.7,216.3,142.8,216.3,141.5z"/>
			</g>
			<g>
				<path id="g4-51_12_" class="st34" d="M222.3,137.2c-0.2,0-0.3,0-0.3,0.1c0,0.1,0.1,0.1,0.3,0.1h0.6c1.2,0,1.7,0.8,1.7,1.9
					c0,1.5-0.9,1.9-1.6,1.9c-0.7,0-1.8-0.3-2.2-1c0.4,0.1,0.8-0.2,0.8-0.6c0-0.3-0.3-0.6-0.7-0.6c-0.3,0-0.7,0.2-0.7,0.6
					c0,1,1.2,1.9,2.8,1.9c1.7,0,2.9-1.1,2.9-2.3c0-1.1-1-1.9-2.4-2.1c1.2-0.3,2-1.1,2-2.1c0-0.9-1.1-1.6-2.5-1.6
					c-1.4,0-2.4,0.7-2.4,1.6c0,0.5,0.4,0.6,0.6,0.6c0.3,0,0.6-0.2,0.6-0.5c0-0.4-0.3-0.5-0.6-0.5c-0.1,0-0.1,0-0.2,0
					c0.5-0.8,1.8-0.8,1.9-0.8c0.5,0,1.4,0.2,1.4,1.3c0,0.2,0,0.9-0.4,1.4c-0.4,0.5-0.9,0.6-1.3,0.6L222.3,137.2z"/>
			</g>
			<g>
				<path id="g4-48_37_" class="st34" d="M232.7,137.7c0-1-0.1-1.9-0.6-2.8c-0.6-1-1.6-1.2-2.3-1.2c-0.8,0-1.8,0.3-2.3,1.3
					c-0.4,0.7-0.5,1.5-0.5,2.7c0,1.1,0.1,2,0.6,2.8c0.5,0.9,1.5,1.2,2.2,1.2c1.2,0,1.9-0.6,2.3-1.3
					C232.7,139.5,232.7,138.3,232.7,137.7z M229.9,141.4c-0.4,0-1.3-0.2-1.6-1.5c-0.2-0.7-0.2-1.6-0.2-2.4c0-1,0-1.8,0.2-2.5
					c0.2-0.8,0.9-1.1,1.5-1.1c0.5,0,1.3,0.3,1.6,1.3c0.2,0.7,0.2,1.6,0.2,2.4c0,0.8,0,1.7-0.2,2.4
					C231.3,141.2,230.4,141.4,229.9,141.4z"/>
			</g>
			<g>
				<path id="g1-2_24_" class="st34" d="M241.8,138.2l-2.8-2.3c-0.2-0.1-0.2-0.2-0.3-0.2c-0.1,0-0.3,0.1-0.3,0.2
					c0,0.1,0,0.1,0.2,0.2l2.8,2.4l-2.8,2.4c-0.2,0.1-0.2,0.2-0.2,0.2c0,0.1,0.1,0.2,0.3,0.2c0.1,0,0.1,0,0.3-0.2l2.8-2.3l2.9,2.4
					c0,0,0.1,0.1,0.2,0.1c0.2,0,0.3-0.1,0.3-0.2c0,0,0-0.1,0-0.1c0,0-2.2-1.9-2.9-2.5l2.5-2.1c0.1-0.1,0.3-0.2,0.3-0.3
					c0,0,0.1-0.1,0.1-0.2c0-0.1-0.1-0.2-0.3-0.2c-0.1,0-0.2,0-0.3,0.2L241.8,138.2z"/>
			</g>
			<g>
				<path id="g4-49_48_" class="st34" d="M254.3,133.9c0-0.3,0-0.3-0.3-0.3c-0.3,0.3-1,0.8-2.5,0.8v0.3c0.3,0,1,0,1.8-0.3v6.1
					c0,0.4,0,0.6-1.3,0.6h-0.4v0.3c0.4,0,1.7,0,2.2,0s1.8,0,2.2,0v-0.3h-0.4c-1.2,0-1.3-0.1-1.3-0.6V133.9z"/>
			</g>
			<g>
				<path id="g4-48_36_" class="st34" d="M263.3,137.7c0-1-0.1-1.9-0.6-2.8c-0.6-1-1.6-1.2-2.3-1.2c-0.8,0-1.8,0.3-2.3,1.3
					c-0.4,0.7-0.5,1.5-0.5,2.7c0,1.1,0.1,2,0.6,2.8c0.5,0.9,1.5,1.2,2.2,1.2c1.2,0,1.9-0.6,2.3-1.3
					C263.3,139.5,263.3,138.3,263.3,137.7z M260.5,141.4c-0.4,0-1.3-0.2-1.6-1.5c-0.2-0.7-0.2-1.6-0.2-2.4c0-1,0-1.8,0.2-2.5
					c0.2-0.8,0.9-1.1,1.5-1.1c0.5,0,1.3,0.3,1.6,1.3c0.2,0.7,0.2,1.6,0.2,2.4c0,0.8,0,1.7-0.2,2.4
					C261.9,141.2,261,141.4,260.5,141.4z"/>
			</g>
			<g>
				<path id="g0-0_24_" class="st34" d="M270.4,134.8c0.1,0,0.4,0,0.4-0.2c0-0.2-0.2-0.2-0.4-0.2h-5.3c-0.1,0-0.4,0-0.4,0.2
					c0,0.2,0.2,0.2,0.4,0.2H270.4z"/>
			</g>
			<g>
				<path id="g3-49_12_" class="st34" d="M274.5,131.6c0-0.2,0-0.2-0.3-0.2c-0.4,0.3-0.9,0.5-1.8,0.5v0.3c0.3,0,0.8,0,1.3-0.2v4
					c0,0.3,0,0.4-0.9,0.4h-0.3v0.3c0.4,0,1.2,0,1.6,0c0.4,0,1.2,0,1.6,0v-0.3h-0.3c-0.9,0-0.9-0.1-0.9-0.4V131.6z"/>
			</g>
			<g>
				<path id="g3-50_12_" class="st34" d="M279.1,135c0.1-0.1,0.5-0.4,0.7-0.5c0.6-0.4,1.1-0.9,1.1-1.6c0-0.9-0.9-1.5-2.1-1.5
					c-1.1,0-1.8,0.7-1.8,1.4c0,0.4,0.4,0.4,0.5,0.4c0.2,0,0.5-0.1,0.5-0.4c0-0.4-0.5-0.4-0.6-0.4c0.3-0.6,0.9-0.8,1.3-0.8
					c0.9,0,1.3,0.6,1.3,1.3c0,0.8-0.7,1.4-1.8,2.4l-1.2,1c-0.1,0.1-0.1,0.1-0.1,0.3h3.7l0.3-1.4h-0.3c0,0.2-0.1,0.5-0.2,0.7
					c-0.1,0.1-0.8,0.1-0.9,0.1h-1.6L279.1,135z"/>
			</g>
		</g>
	</g>
</g>
</svg>
