<?xml version="1.0" encoding="utf-8"?>
<!-- Generator: Adobe Illustrator 19.0.0, SVG Export Plug-In . SVG Version: 6.00 Build 0)  -->
<svg version="1.1" xmlns="http://www.w3.org/2000/svg" xmlns:xlink="http://www.w3.org/1999/xlink" x="0px" y="0px"
	 viewBox="-1314 -1124 1438 1170" style="enable-background:new -1314 -1124 1438 1170;" xml:space="preserve">
<style type="text/css">
	.st0{fill:#AA1916;}
	.st1{fill:#FFFFFF;stroke:#000000;stroke-miterlimit:10;}
	.st2{fill:#FFFFFF;}
	.st3{fill:#AA2520;}
	.st4{fill:none;stroke:#000000;stroke-width:7;stroke-miterlimit:10;}
	.st5{fill:none;}
	.st6{font-family:'ArialMT';}
	.st7{font-size:43px;}
	.st8{fill:#004877;}
</style>
<g id="Capa_1">
	<g id="Diana">
		<path id="XMLID_18_" class="st0" d="M-924.4-442.5c-99.4,0-180,80.6-180,180s80.6,180,180,180s180-80.6,180-180
			S-825-442.5-924.4-442.5z M-924.4-118.5c-79.5,0-144-64.5-144-144s64.5-144,144-144s144,64.5,144,144S-844.9-118.5-924.4-118.5z"
			/>
		<path id="XMLID_13_" class="st1" d="M-780.4-262.5c0,79.5-64.5,144-144,144s-144-64.5-144-144s64.5-144,144-144
			S-780.4-342-780.4-262.5z"/>
		<path id="XMLID_21_" class="st2" d="M-924.4-406.5c-79.5,0-144,64.5-144,144s64.5,144,144,144s144-64.5,144-144
			S-844.9-406.5-924.4-406.5z M-924.4-158.8c-57.2,0-103.7-46.4-103.7-103.7s46.4-103.7,103.7-103.7s103.7,46.4,103.7,103.7
			S-867.2-158.8-924.4-158.8z"/>
		<path id="XMLID_11_" class="st1" d="M-820.7-262.5c0,57.2-46.4,103.7-103.7,103.7s-103.7-46.4-103.7-103.7s46.4-103.7,103.7-103.7
			C-867.2-366.1-820.7-319.8-820.7-262.5z"/>
		<path id="XMLID_24_" class="st3" d="M-924.4-366.1c-57.2,0-103.7,46.4-103.7,103.7s46.4,103.7,103.7,103.7s103.7-46.4,103.7-103.7
			C-820.7-319.8-867.2-366.1-924.4-366.1z M-924.4-189.9c-40.1,0-72.6-32.5-72.6-72.6s32.5-72.6,72.6-72.6
			c40.1,0,72.6,32.5,72.6,72.6C-851.9-222.4-884.3-189.9-924.4-189.9z"/>
		<path id="XMLID_12_" class="st1" d="M-851.9-262.5c0,40.1-32.5,72.6-72.6,72.6c-40.1,0-72.6-32.5-72.6-72.6
			c0-40.1,32.5-72.6,72.6-72.6C-884.3-335.1-851.9-302.6-851.9-262.5z"/>
		<path id="XMLID_27_" class="st2" d="M-924.4-335.1c-40.1,0-72.6,32.5-72.6,72.6s32.5,72.6,72.6,72.6c40.1,0,72.6-32.5,72.6-72.6
			C-851.9-302.6-884.3-335.1-924.4-335.1z M-924.4-232.2c-16.7,0-30.2-13.6-30.2-30.2s13.6-30.2,30.2-30.2s30.2,13.6,30.2,30.2
			S-907.7-232.2-924.4-232.2z"/>
		<path id="XMLID_10_" class="st1" d="M-894.2-262.5c0,16.7-13.6,30.2-30.2,30.2s-30.2-13.6-30.2-30.2s13.6-30.2,30.2-30.2
			S-894.2-279.2-894.2-262.5z"/>
		<path id="XMLID_8_" class="st3" d="M-894.2-262.5c0,16.7-13.6,30.2-30.2,30.2s-30.2-13.6-30.2-30.2s13.6-30.2,30.2-30.2
			S-894.2-279.2-894.2-262.5z"/>
	</g>
	<g id="Diana_1_">
		<path id="XMLID_14_" class="st0" d="M-257.9-442.5c-99.4,0-180,80.6-180,180s80.6,180,180,180s180-80.6,180-180
			S-158.5-442.5-257.9-442.5z M-257.9-118.5c-79.5,0-144-64.5-144-144s64.5-144,144-144s144,64.5,144,144S-178.4-118.5-257.9-118.5z
			"/>
		<path id="XMLID_9_" class="st1" d="M-113.9-262.5c0,79.5-64.5,144-144,144s-144-64.5-144-144s64.5-144,144-144
			S-113.9-342-113.9-262.5z"/>
		<path id="XMLID_7_" class="st2" d="M-257.9-406.5c-79.5,0-144,64.5-144,144s64.5,144,144,144s144-64.5,144-144
			S-178.4-406.5-257.9-406.5z M-257.9-158.8c-57.2,0-103.7-46.4-103.7-103.7s46.4-103.7,103.7-103.7s103.7,46.4,103.7,103.7
			S-200.7-158.8-257.9-158.8z"/>
		<path id="XMLID_6_" class="st1" d="M-154.2-262.5c0,57.2-46.4,103.7-103.7,103.7s-103.7-46.4-103.7-103.7s46.4-103.7,103.7-103.7
			C-200.7-366.1-154.2-319.8-154.2-262.5z"/>
		<path id="XMLID_5_" class="st3" d="M-257.9-366.1c-57.2,0-103.7,46.4-103.7,103.7s46.4,103.7,103.7,103.7s103.7-46.4,103.7-103.7
			C-154.2-319.8-200.7-366.1-257.9-366.1z M-257.9-189.9c-40.1,0-72.6-32.5-72.6-72.6s32.5-72.6,72.6-72.6s72.6,32.5,72.6,72.6
			C-185.4-222.4-217.8-189.9-257.9-189.9z"/>
		<path id="XMLID_4_" class="st1" d="M-185.4-262.5c0,40.1-32.5,72.6-72.6,72.6s-72.6-32.5-72.6-72.6s32.5-72.6,72.6-72.6
			C-217.8-335.1-185.4-302.6-185.4-262.5z"/>
		<path id="XMLID_3_" class="st2" d="M-257.9-335.1c-40.1,0-72.6,32.5-72.6,72.6s32.5,72.6,72.6,72.6s72.6-32.5,72.6-72.6
			C-185.4-302.6-217.8-335.1-257.9-335.1z M-257.9-232.2c-16.7,0-30.2-13.6-30.2-30.2s13.6-30.2,30.2-30.2s30.2,13.6,30.2,30.2
			S-241.2-232.2-257.9-232.2z"/>
		<path id="XMLID_2_" class="st1" d="M-227.7-262.5c0,16.7-13.6,30.2-30.2,30.2s-30.2-13.6-30.2-30.2s13.6-30.2,30.2-30.2
			S-227.7-279.2-227.7-262.5z"/>
		<path id="XMLID_1_" class="st3" d="M-227.7-262.5c0,16.7-13.6,30.2-30.2,30.2s-30.2-13.6-30.2-30.2s13.6-30.2,30.2-30.2
			S-227.7-279.2-227.7-262.5z"/>
	</g>
	<g id="Diana_3_">
		<path id="XMLID_36_" class="st0" d="M-924.4-1002.5c-99.4,0-180,80.6-180,180s80.6,180,180,180s180-80.6,180-180
			S-825-1002.5-924.4-1002.5z M-924.4-678.5c-79.5,0-144-64.5-144-144s64.5-144,144-144s144,64.5,144,144S-844.9-678.5-924.4-678.5z
			"/>
		<path id="XMLID_35_" class="st1" d="M-780.4-822.5c0,79.5-64.5,144-144,144s-144-64.5-144-144s64.5-144,144-144
			C-844.9-966.5-780.4-902-780.4-822.5z"/>
		<path id="XMLID_34_" class="st2" d="M-924.4-966.5c-79.5,0-144,64.5-144,144s64.5,144,144,144s144-64.5,144-144
			S-844.9-966.5-924.4-966.5z M-924.4-718.8c-57.2,0-103.7-46.4-103.7-103.7c0-57.2,46.4-103.7,103.7-103.7s103.7,46.4,103.7,103.7
			C-820.7-765.2-867.2-718.8-924.4-718.8z"/>
		<path id="XMLID_33_" class="st1" d="M-820.7-822.5c0,57.2-46.4,103.7-103.7,103.7s-103.7-46.4-103.7-103.7s46.4-103.7,103.7-103.7
			S-820.7-879.8-820.7-822.5z"/>
		<path id="XMLID_32_" class="st3" d="M-924.4-926.1c-57.2,0-103.7,46.4-103.7,103.7s46.4,103.7,103.7,103.7s103.7-46.4,103.7-103.7
			C-820.7-879.8-867.2-926.1-924.4-926.1z M-924.4-749.9c-40.1,0-72.6-32.5-72.6-72.6c0-40.1,32.5-72.6,72.6-72.6
			c40.1,0,72.6,32.5,72.6,72.6C-851.9-782.4-884.3-749.9-924.4-749.9z"/>
		<path id="XMLID_31_" class="st1" d="M-851.9-822.5c0,40.1-32.5,72.6-72.6,72.6c-40.1,0-72.6-32.5-72.6-72.6
			c0-40.1,32.5-72.6,72.6-72.6C-884.3-895.1-851.9-862.6-851.9-822.5z"/>
		<path id="XMLID_30_" class="st2" d="M-924.4-895.1c-40.1,0-72.6,32.5-72.6,72.6s32.5,72.6,72.6,72.6c40.1,0,72.6-32.5,72.6-72.6
			C-851.9-862.6-884.3-895.1-924.4-895.1z M-924.4-792.2c-16.7,0-30.2-13.6-30.2-30.2s13.6-30.2,30.2-30.2s30.2,13.6,30.2,30.2
			S-907.7-792.2-924.4-792.2z"/>
		<path id="XMLID_29_" class="st1" d="M-894.2-822.5c0,16.7-13.6,30.2-30.2,30.2s-30.2-13.6-30.2-30.2s13.6-30.2,30.2-30.2
			S-894.2-839.2-894.2-822.5z"/>
		<path id="XMLID_28_" class="st3" d="M-894.2-822.5c0,16.7-13.6,30.2-30.2,30.2s-30.2-13.6-30.2-30.2s13.6-30.2,30.2-30.2
			S-894.2-839.2-894.2-822.5z"/>
	</g>
	<g id="Diana_2_">
		<path id="XMLID_26_" class="st0" d="M-257.9-1002.5c-99.4,0-180,80.6-180,180s80.6,180,180,180s180-80.6,180-180
			S-158.5-1002.5-257.9-1002.5z M-257.9-678.5c-79.5,0-144-64.5-144-144s64.5-144,144-144s144,64.5,144,144
			S-178.4-678.5-257.9-678.5z"/>
		<path id="XMLID_25_" class="st1" d="M-113.9-822.5c0,79.5-64.5,144-144,144s-144-64.5-144-144s64.5-144,144-144
			S-113.9-902-113.9-822.5z"/>
		<path id="XMLID_23_" class="st2" d="M-257.9-966.5c-79.5,0-144,64.5-144,144s64.5,144,144,144s144-64.5,144-144
			S-178.4-966.5-257.9-966.5z M-257.9-718.8c-57.2,0-103.7-46.4-103.7-103.7s46.4-103.7,103.7-103.7s103.7,46.4,103.7,103.7
			S-200.7-718.8-257.9-718.8z"/>
		<path id="XMLID_22_" class="st1" d="M-154.2-822.5c0,57.2-46.4,103.7-103.7,103.7s-103.7-46.4-103.7-103.7
			c0-57.2,46.4-103.7,103.7-103.7S-154.2-879.8-154.2-822.5z"/>
		<path id="XMLID_20_" class="st3" d="M-257.9-926.1c-57.2,0-103.7,46.4-103.7,103.7s46.4,103.7,103.7,103.7s103.7-46.4,103.7-103.7
			C-154.2-879.8-200.7-926.1-257.9-926.1z M-257.9-749.9c-40.1,0-72.6-32.5-72.6-72.6s32.5-72.6,72.6-72.6s72.6,32.5,72.6,72.6
			C-185.4-782.4-217.8-749.9-257.9-749.9z"/>
		<path id="XMLID_19_" class="st1" d="M-185.4-822.5c0,40.1-32.5,72.6-72.6,72.6s-72.6-32.5-72.6-72.6S-298-895-258-895
			C-217.8-895-185.4-862.6-185.4-822.5z"/>
		<path id="XMLID_17_" class="st2" d="M-257.9-895c-40.1,0-72.6,32.5-72.6,72.6s32.5,72.6,72.6,72.6s72.6-32.5,72.6-72.6
			C-185.4-862.6-217.8-895-257.9-895z M-257.9-792.2c-16.7,0-30.2-13.6-30.2-30.2s13.6-30.2,30.2-30.2s30.2,13.6,30.2,30.2
			S-241.2-792.2-257.9-792.2z"/>
		<path id="XMLID_16_" class="st1" d="M-227.7-822.5c0,16.7-13.6,30.2-30.2,30.2s-30.2-13.6-30.2-30.2s13.6-30.2,30.2-30.2
			S-227.7-839.2-227.7-822.5z"/>
		<path id="XMLID_15_" class="st3" d="M-227.7-822.5c0,16.7-13.6,30.2-30.2,30.2s-30.2-13.6-30.2-30.2s13.6-30.2,30.2-30.2
			S-227.7-839.2-227.7-822.5z"/>
	</g>
	<g>
		<g>
			<polyline class="st4" points="-1201.7,-968.6 -1201.7,-50 -39.2,-50 			"/>
			<g>
				<polygon points="-1201.7,-1018 -1230.2,-948.4 -1201.7,-964.9 -1173.3,-948.4 				"/>
			</g>
			<g>
				<polygon points="10.3,-50 -59.4,-21.5 -42.9,-50 -59.4,-78.5 				"/>
			</g>
		</g>
	</g>
	<g>
		<g>
			<polyline class="st4" points="28.8,-115.9 28.8,-1034.5 -1133.8,-1034.5 			"/>
			<g>
				<polygon points="28.8,-66.5 57.2,-136.1 28.8,-119.6 0.3,-136.1 				"/>
			</g>
			<g>
				<polygon points="-1183.2,-1034.5 -1113.6,-1063 -1130.1,-1034.5 -1113.6,-1006 				"/>
			</g>
		</g>
	</g>
	<rect x="-448" y="-686" class="st5" width="1020" height="112"/>
	<rect x="-663.5" y="-1089.1" class="st5" width="180.1" height="37.5"/>
	<text transform="matrix(1 0 0 1 -663.4894 -1058.2974)" class="st6 st7">Exactitud</text>
	<rect x="-1254.5" y="-695.4" class="st5" width="37.5" height="277.7"/>
	<text transform="matrix(4.489659e-011 -1 1 4.489659e-011 -1223.6724 -417.7012)" class="st6 st7">Error Aleatorio</text>
	<rect x="43.3" y="-651.9" class="st5" width="37.5" height="185.7"/>
	<text transform="matrix(-4.489659e-011 1 -1 -4.489659e-011 49.9619 -651.8569)" class="st6 st7">Precisión</text>
	<rect x="-739.6" y="-27.1" class="st5" width="332.4" height="37.5"/>
	<text transform="matrix(1 0 0 1 -739.641 3.6495)" class="st6 st7">Error Sistemático</text>
</g>
<g id="Capa_2">
	<path class="st8" d="M-805.5-898.2c0-2-7.3-3.7-17-4.1c-0.4-9.7-2.1-17-4.1-17s-3.7,7.3-4.1,17c-9.7,0.4-17,2.1-17,4.1
		s7.3,3.7,17,4.1c0.4,9.7,2.1,17,4.1,17s3.7-7.3,4.1-17C-812.8-894.5-805.5-896.2-805.5-898.2z"/>
	<path class="st8" d="M-908-940.3c0-2-7.3-3.7-17-4.1c-0.4-9.7-2.1-17-4.1-17s-3.7,7.3-4.1,17c-9.7,0.4-17,2.1-17,4.1
		s7.3,3.7,17,4.1c0.4,9.7,2.1,17,4.1,17s3.7-7.3,4.1-17C-915.3-936.6-908-938.3-908-940.3z"/>
	<path class="st8" d="M-942-882.8c0-2-7.3-3.7-17-4.1c-0.4-9.7-2.1-17-4.1-17s-3.7,7.3-4.1,17c-9.7,0.4-17,2.1-17,4.1
		s7.3,3.7,17,4.1c0.4,9.7,2.1,17,4.1,17s3.7-7.3,4.1-17C-949.3-879.1-942-880.8-942-882.8z"/>
	<path class="st8" d="M-1003.5-826.8c0-2-7.3-3.7-17-4.1c-0.4-9.7-2.1-17-4.1-17c-2,0-3.7,7.3-4.1,17c-9.7,0.4-17,2.1-17,4.1
		s7.3,3.7,17,4.1c0.4,9.7,2.1,17,4.1,17c2,0,3.7-7.3,4.1-17C-1010.8-823.1-1003.5-824.8-1003.5-826.8z"/>
	<path class="st8" d="M-954.9-749.9c0-2-7.3-3.7-17-4.1c-0.4-9.7-2.1-17-4.1-17s-3.7,7.3-4.1,17c-9.7,0.4-17,2.1-17,4.1
		s7.3,3.7,17,4.1c0.4,9.7,2.1,17,4.1,17s3.7-7.3,4.1-17C-962.2-746.1-954.9-747.8-954.9-749.9z"/>
	<path class="st8" d="M-855.4-739.8c0-2-7.3-3.7-17-4.1c-0.4-9.7-2.1-17-4.1-17s-3.7,7.3-4.1,17c-9.7,0.4-17,2.1-17,4.1
		c0,2,7.3,3.7,17,4.1c0.4,9.7,2.1,17,4.1,17s3.7-7.3,4.1-17C-862.7-736.1-855.4-737.8-855.4-739.8z"/>
	<path class="st8" d="M-822.3-784.7c0-2-7.3-3.7-17-4.1c-0.4-9.7-2.1-17-4.1-17s-3.7,7.3-4.1,17c-9.7,0.4-17,2.1-17,4.1
		s7.3,3.7,17,4.1c0.4,9.7,2.1,17,4.1,17s3.7-7.3,4.1-17C-829.6-781-822.3-782.7-822.3-784.7z"/>
	<path class="st8" d="M-809.7-835.7c0-2-7.3-3.7-17-4.1c-0.4-9.7-2.1-17-4.1-17s-3.7,7.3-4.1,17c-9.7,0.4-17,2.1-17,4.1
		s7.3,3.7,17,4.1c0.4,9.7,2.1,17,4.1,17s3.7-7.3,4.1-17C-817-832-809.7-833.7-809.7-835.7z"/>
	<path class="st8" d="M-921-808.2c0-2-7.3-3.7-17-4.1c-0.4-9.7-2.1-17-4.1-17c-2,0-3.7,7.3-4.1,17c-9.7,0.4-17,2.1-17,4.1
		s7.3,3.7,17,4.1c0.4,9.7,2.1,17,4.1,17c2,0,3.7-7.3,4.1-17C-928.3-804.5-921-806.2-921-808.2z"/>
	<path class="st8" d="M-887-839.7c0-2-7.3-3.7-17-4.1c-0.4-9.7-2.1-17-4.1-17c-2,0-3.7,7.3-4.1,17c-9.7,0.4-17,2.1-17,4.1
		s7.3,3.7,17,4.1c0.4,9.7,2.1,17,4.1,17c2,0,3.7-7.3,4.1-17C-894.3-836-887-837.7-887-839.7z"/>
	<path class="st8" d="M-1012.5-760.9c0-2-7.3-3.7-17-4.1c-0.4-9.7-2.1-17-4.1-17s-3.7,7.3-4.1,17c-9.7,0.4-17,2.1-17,4.1
		s7.3,3.7,17,4.1c0.4,9.7,2.1,17,4.1,17s3.7-7.3,4.1-17C-1019.8-757.2-1012.5-758.9-1012.5-760.9z"/>
	<path class="st8" d="M-897.6-699.5c0-2-7.3-3.7-17-4.1c-0.4-9.7-2.1-17-4.1-17s-3.7,7.3-4.1,17c-9.7,0.4-17,2.1-17,4.1
		s7.3,3.7,17,4.1c0.4,9.7,2.1,17,4.1,17s3.7-7.3,4.1-17C-904.9-695.8-897.6-697.5-897.6-699.5z"/>
	<path class="st8" d="M-997-905.1c0-2-7.3-3.7-17-4.1c-0.4-9.7-2.1-17-4.1-17c-2,0-3.7,7.3-4.1,17c-9.7,0.4-17,2.1-17,4.1
		s7.3,3.7,17,4.1c0.4,9.7,2.1,17,4.1,17c2,0,3.7-7.3,4.1-17C-1004.3-901.3-997-903-997-905.1z"/>
	<path class="st8" d="M16.1-959.1c0-2-7.3-3.7-17-4.1c-0.4-9.7-2.1-17-4.1-17s-3.7,7.3-4.1,17c-9.7,0.4-17,2.1-17,4.1
		s7.3,3.7,17,4.1c0.4,9.7,2.1,17,4.1,17s3.7-7.3,4.1-17C8.8-955.4,16.1-957.1,16.1-959.1z"/>
	<path class="st8" d="M-86.4-1001.3c0-2-7.3-3.7-17-4.1c-0.4-9.7-2.1-17-4.1-17s-3.7,7.3-4.1,17c-9.7,0.4-17,2.1-17,4.1
		s7.3,3.7,17,4.1c0.4,9.7,2.1,17,4.1,17s3.7-7.3,4.1-17C-93.7-997.6-86.4-999.3-86.4-1001.3z"/>
	<path class="st8" d="M-120.4-943.8c0-2-7.3-3.7-17-4.1c-0.4-9.7-2.1-17-4.1-17c-2,0-3.7,7.3-4.1,17c-9.7,0.4-17,2.1-17,4.1
		s7.3,3.7,17,4.1c0.4,9.7,2.1,17,4.1,17c2,0,3.7-7.3,4.1-17C-127.7-940.1-120.4-941.8-120.4-943.8z"/>
	<path class="st8" d="M-181.9-887.8c0-2-7.3-3.7-17-4.1c-0.4-9.7-2.1-17-4.1-17c-2,0-3.7,7.3-4.1,17c-9.7,0.4-17,2.1-17,4.1
		s7.3,3.7,17,4.1c0.4,9.7,2.1,17,4.1,17c2,0,3.7-7.3,4.1-17C-189.2-884.1-181.9-885.8-181.9-887.8z"/>
	<path class="st8" d="M-133.3-810.8c0-2-7.3-3.7-17-4.1c-0.4-9.7-2.1-17-4.1-17s-3.7,7.3-4.1,17c-9.7,0.4-17,2.1-17,4.1
		s7.3,3.7,17,4.1c0.4,9.7,2.1,17,4.1,17s3.7-7.3,4.1-17C-140.6-807.1-133.3-808.8-133.3-810.8z"/>
	<path class="st8" d="M-33.8-800.8c0-2-7.3-3.7-17-4.1c-0.4-9.7-2.1-17-4.1-17c-2,0-3.7,7.3-4.1,17c-9.7,0.4-17,2.1-17,4.1
		c0,2,7.3,3.7,17,4.1c0.4,9.7,2.1,17,4.1,17c2,0,3.7-7.3,4.1-17C-41.1-797.1-33.8-798.8-33.8-800.8z"/>
	<path class="st8" d="M-0.7-845.6c0-2-7.3-3.7-17-4.1c-0.4-9.7-2.1-17-4.1-17s-3.7,7.3-4.1,17c-9.7,0.4-17,2.1-17,4.1
		s7.3,3.7,17,4.1c0.4,9.7,2.1,17,4.1,17s3.7-7.3,4.1-17C-8-841.9-0.7-843.6-0.7-845.6z"/>
	<path class="st8" d="M11.9-896.6c0-2-7.3-3.7-17-4.1c-0.4-9.7-2.1-17-4.1-17s-3.7,7.3-4.1,17c-9.7,0.4-17,2.1-17,4.1
		s7.3,3.7,17,4.1c0.4,9.7,2.1,17,4.1,17s3.7-7.3,4.1-17C4.6-892.9,11.9-894.6,11.9-896.6z"/>
	<path class="st8" d="M-99.4-869.1c0-2-7.3-3.7-17-4.1c-0.4-9.7-2.1-17-4.1-17c-2,0-3.7,7.3-4.1,17c-9.7,0.4-17,2.1-17,4.1
		s7.3,3.7,17,4.1c0.4,9.7,2.1,17,4.1,17c2,0,3.7-7.3,4.1-17C-106.7-865.4-99.4-867.1-99.4-869.1z"/>
	<path class="st8" d="M-65.4-900.6c0-2-7.3-3.7-17-4.1c-0.4-9.7-2.1-17-4.1-17s-3.7,7.3-4.1,17c-9.7,0.4-17,2.1-17,4.1
		s7.3,3.7,17,4.1c0.4,9.7,2.1,17,4.1,17s3.7-7.3,4.1-17C-72.7-896.9-65.4-898.6-65.4-900.6z"/>
	<path class="st8" d="M-190.9-821.9c0-2-7.3-3.7-17-4.1c-0.4-9.7-2.1-17-4.1-17c-2,0-3.7,7.3-4.1,17c-9.7,0.4-17,2.1-17,4.1
		s7.3,3.7,17,4.1c0.4,9.7,2.1,17,4.1,17c2,0,3.7-7.3,4.1-17C-198.2-818.2-190.9-819.8-190.9-821.9z"/>
	<path class="st8" d="M-75.9-760.5c0-2-7.3-3.7-17-4.1c-0.4-9.7-2.1-17-4.1-17s-3.7,7.3-4.1,17c-9.7,0.4-17,2.1-17,4.1
		s7.3,3.7,17,4.1c0.4,9.7,2.1,17,4.1,17s3.7-7.3,4.1-17C-83.3-756.8-75.9-758.5-75.9-760.5z"/>
	<path class="st8" d="M-175.4-966c0-2-7.3-3.7-17-4.1c-0.4-9.7-2.1-17-4.1-17c-2,0-3.7,7.3-4.1,17c-9.7,0.4-17,2.1-17,4.1
		s7.3,3.7,17,4.1c0.4,9.7,2.1,17,4.1,17c2,0,3.7-7.3,4.1-17C-182.7-962.3-175.4-964-175.4-966z"/>
	<path class="st8" d="M-132.1-347.6c0-2-7.3-3.7-17-4.1c-0.4-9.7-2.1-17-4.1-17c-2,0-3.7,7.3-4.1,17c-9.7,0.4-17,2.1-17,4.1
		c0,2,7.3,3.7,17,4.1c0.4,9.7,2.1,17,4.1,17c2,0,3.7-7.3,4.1-17C-139.4-343.9-132.1-345.6-132.1-347.6z"/>
	<path class="st8" d="M-154.3-337.7c0-2-7.3-3.7-17-4.1c-0.4-9.7-2.1-17-4.1-17c-2,0-3.7,7.3-4.1,17c-9.7,0.4-17,2.1-17,4.1
		c0,2,7.3,3.7,17,4.1c0.4,9.7,2.1,17,4.1,17c2,0,3.7-7.3,4.1-17C-161.6-334-154.3-335.7-154.3-337.7z"/>
	<path class="st8" d="M-171.8-326.5c0-2-7.3-3.7-17-4.1c-0.4-9.7-2.1-17-4.1-17c-2,0-3.7,7.3-4.1,17c-9.7,0.4-17,2.1-17,4.1
		s7.3,3.7,17,4.1c0.4,9.7,2.1,17,4.1,17c2,0,3.7-7.3,4.1-17C-179.1-322.8-171.8-324.5-171.8-326.5z"/>
	<path class="st8" d="M-118.9-333.4c0-2-7.3-3.7-17-4.1c-0.4-9.7-2.1-17-4.1-17c-2,0-3.7,7.3-4.1,17c-9.7,0.4-17,2.1-17,4.1
		c0,2,7.3,3.7,17,4.1c0.4,9.7,2.1,17,4.1,17c2,0,3.7-7.3,4.1-17C-126.2-329.7-118.9-331.4-118.9-333.4z"/>
	<path class="st8" d="M-184.6-341c0-2-7.3-3.7-17-4.1c-0.4-9.7-2.1-17-4.1-17s-3.7,7.3-4.1,17c-9.7,0.4-17,2.1-17,4.1
		c0,2,7.3,3.7,17,4.1c0.4,9.7,2.1,17,4.1,17s3.7-7.3,4.1-17C-191.9-337.3-184.6-339-184.6-341z"/>
	<path class="st8" d="M-171.8-368.7c0-2-7.3-3.7-17-4.1c-0.4-9.7-2.1-17-4.1-17c-2,0-3.7,7.3-4.1,17c-9.7,0.4-17,2.1-17,4.1
		c0,2,7.3,3.7,17,4.1c0.4,9.7,2.1,17,4.1,17c2,0,3.7-7.3,4.1-17C-179.1-365-171.8-366.7-171.8-368.7z"/>
	<path class="st8" d="M-144.7-362.1c0-2-7.3-3.7-17-4.1c-0.4-9.7-2.1-17-4.1-17c-2,0-3.7,7.3-4.1,17c-9.7,0.4-17,2.1-17,4.1
		s7.3,3.7,17,4.1c0.4,9.7,2.1,17,4.1,17c2,0,3.7-7.3,4.1-17C-152-358.3-144.7-360-144.7-362.1z"/>
	<path class="st8" d="M-139.9-321.7c0-2-7.3-3.7-17-4.1c-0.4-9.7-2.1-17-4.1-17c-2,0-3.7,7.3-4.1,17c-9.7,0.4-17,2.1-17,4.1
		c0,2,7.3,3.7,17,4.1c0.4,9.7,2.1,17,4.1,17c2,0,3.7-7.3,4.1-17C-147.2-318-139.9-319.7-139.9-321.7z"/>
	<path class="st8" d="M-127.7-312.3c0-2-7.3-3.7-17-4.1c-0.4-9.7-2.1-17-4.1-17c-2,0-3.7,7.3-4.1,17c-9.7,0.4-17,2.1-17,4.1
		c0,2,7.3,3.7,17,4.1c0.4,9.7,2.1,17,4.1,17c2,0,3.7-7.3,4.1-17C-135-308.6-127.7-310.3-127.7-312.3z"/>
	<path class="st8" d="M-156.7-312.3c0-2-7.3-3.7-17-4.1c-0.4-9.7-2.1-17-4.1-17c-2,0-3.7,7.3-4.1,17c-9.7,0.4-17,2.1-17,4.1
		c0,2,7.3,3.7,17,4.1c0.4,9.7,2.1,17,4.1,17c2,0,3.7-7.3,4.1-17C-164-308.6-156.7-310.3-156.7-312.3z"/>
	<path class="st8" d="M-123.6-372.3c0-2-7.3-3.7-17-4.1c-0.4-9.7-2.1-17-4.1-17c-2,0-3.7,7.3-4.1,17c-9.7,0.4-17,2.1-17,4.1
		c0,2,7.3,3.7,17,4.1c0.4,9.7,2.1,17,4.1,17c2,0,3.7-7.3,4.1-17C-130.9-368.6-123.6-370.3-123.6-372.3z"/>
	<path class="st8" d="M-146.1-387.4c0-2-7.3-3.7-17-4.1c-0.4-9.7-2.1-17-4.1-17s-3.7,7.3-4.1,17c-9.7,0.4-17,2.1-17,4.1
		c0,2,7.3,3.7,17,4.1c0.4,9.7,2.1,17,4.1,17s3.7-7.3,4.1-17C-153.4-383.7-146.1-385.4-146.1-387.4z"/>
	<path class="st8" d="M-167.2-354.5c0-2-7.3-3.7-17-4.1c-0.4-9.7-2.1-17-4.1-17c-2,0-3.7,7.3-4.1,17c-9.7,0.4-17,2.1-17,4.1
		c0,2,7.3,3.7,17,4.1c0.4,9.7,2.1,17,4.1,17c2,0,3.7-7.3,4.1-17C-174.5-350.8-167.2-352.5-167.2-354.5z"/>
	<path class="st8" d="M-888.4-260.2c0-2-7.3-3.7-17-4.1c-0.4-9.7-2.1-17-4.1-17s-3.7,7.3-4.1,17c-9.7,0.4-17,2.1-17,4.1
		s7.3,3.7,17,4.1c0.4,9.7,2.1,17,4.1,17s3.7-7.3,4.1-17C-895.7-256.5-888.4-258.2-888.4-260.2z"/>
	<path class="st8" d="M-910.6-250.3c0-2-7.3-3.7-17-4.1c-0.4-9.7-2.1-17-4.1-17s-3.7,7.3-4.1,17c-9.7,0.4-17,2.1-17,4.1
		s7.3,3.7,17,4.1c0.4,9.7,2.1,17,4.1,17s3.7-7.3,4.1-17C-917.9-246.6-910.6-248.2-910.6-250.3z"/>
	<path class="st8" d="M-928.1-239.1c0-2-7.3-3.7-17-4.1c-0.4-9.7-2.1-17-4.1-17s-3.7,7.3-4.1,17c-9.7,0.4-17,2.1-17,4.1
		s7.3,3.7,17,4.1c0.4,9.7,2.1,17,4.1,17s3.7-7.3,4.1-17C-935.4-235.4-928.1-237.1-928.1-239.1z"/>
	<path class="st8" d="M-875.2-246c0-2-7.3-3.7-17-4.1c-0.4-9.7-2.1-17-4.1-17s-3.7,7.3-4.1,17c-9.7,0.4-17,2.1-17,4.1
		s7.3,3.7,17,4.1c0.4,9.7,2.1,17,4.1,17s3.7-7.3,4.1-17C-882.5-242.3-875.2-244-875.2-246z"/>
	<path class="st8" d="M-940.9-253.6c0-2-7.3-3.7-17-4.1c-0.4-9.7-2.1-17-4.1-17c-2,0-3.7,7.3-4.1,17c-9.7,0.4-17,2.1-17,4.1
		s7.3,3.7,17,4.1c0.4,9.7,2.1,17,4.1,17c2,0,3.7-7.3,4.1-17C-948.2-249.8-940.9-251.5-940.9-253.6z"/>
	<path class="st8" d="M-928.1-281.3c0-2-7.3-3.7-17-4.1c-0.4-9.7-2.1-17-4.1-17s-3.7,7.3-4.1,17c-9.7,0.4-17,2.1-17,4.1
		c0,2,7.3,3.7,17,4.1c0.4,9.7,2.1,17,4.1,17s3.7-7.3,4.1-17C-935.4-277.6-928.1-279.2-928.1-281.3z"/>
	<path class="st8" d="M-901-274.6c0-2-7.3-3.7-17-4.1c-0.4-9.7-2.1-17-4.1-17s-3.7,7.3-4.1,17c-9.7,0.4-17,2.1-17,4.1
		c0,2,7.3,3.7,17,4.1c0.4,9.7,2.1,17,4.1,17s3.7-7.3,4.1-17C-908.3-270.9-901-272.6-901-274.6z"/>
	<path class="st8" d="M-896.2-234.3c0-2-7.3-3.7-17-4.1c-0.4-9.7-2.1-17-4.1-17s-3.7,7.3-4.1,17c-9.7,0.4-17,2.1-17,4.1
		s7.3,3.7,17,4.1c0.4,9.7,2.1,17,4.1,17s3.7-7.3,4.1-17C-903.5-230.6-896.2-232.3-896.2-234.3z"/>
	<path class="st8" d="M-884-224.9c0-2-7.3-3.7-17-4.1c-0.4-9.7-2.1-17-4.1-17s-3.7,7.3-4.1,17c-9.7,0.4-17,2.1-17,4.1
		s7.3,3.7,17,4.1c0.4,9.7,2.1,17,4.1,17s3.7-7.3,4.1-17C-891.3-221.2-884-222.9-884-224.9z"/>
	<path class="st8" d="M-913-224.9c0-2-7.3-3.7-17-4.1c-0.4-9.7-2.1-17-4.1-17s-3.7,7.3-4.1,17c-9.7,0.4-17,2.1-17,4.1
		c0,2,7.3,3.7,17,4.1c0.4,9.7,2.1,17,4.1,17s3.7-7.3,4.1-17C-920.3-221.2-913-222.9-913-224.9z"/>
	<path class="st8" d="M-879.9-284.9c0-2-7.3-3.7-17-4.1c-0.4-9.7-2.1-17-4.1-17s-3.7,7.3-4.1,17c-9.7,0.4-17,2.1-17,4.1
		s7.3,3.7,17,4.1c0.4,9.7,2.1,17,4.1,17s3.7-7.3,4.1-17C-887.2-281.2-879.9-282.8-879.9-284.9z"/>
	<path class="st8" d="M-902.4-300c0-2-7.3-3.7-17-4.1c-0.4-9.7-2.1-17-4.1-17s-3.7,7.3-4.1,17c-9.7,0.4-17,2.1-17,4.1
		c0,2,7.3,3.7,17,4.1c0.4,9.7,2.1,17,4.1,17s3.7-7.3,4.1-17C-909.7-296.3-902.4-297.9-902.4-300z"/>
	<path class="st8" d="M-923.5-267.1c0-2-7.3-3.7-17-4.1c-0.4-9.7-2.1-17-4.1-17s-3.7,7.3-4.1,17c-9.7,0.4-17,2.1-17,4.1
		c0,2,7.3,3.7,17,4.1c0.4,9.7,2.1,17,4.1,17s3.7-7.3,4.1-17C-930.8-263.4-923.5-265.1-923.5-267.1z"/>
</g>
</svg>
