<?xml version="1.0" encoding="utf-8"?>
<!-- Generator: Adobe Illustrator 19.0.0, SVG Export Plug-In . SVG Version: 6.00 Build 0)  -->
<svg version="1.1" xmlns="http://www.w3.org/2000/svg" xmlns:xlink="http://www.w3.org/1999/xlink" x="0px" y="0px"
	 viewBox="0 0 610 610" style="enable-background:new 0 0 610 610;" xml:space="preserve">
<style type="text/css">
	.st0{fill:#AA1916;}
	.st1{fill:#FFFFFF;stroke:#000000;stroke-miterlimit:10;}
	.st2{fill:#FFFFFF;}
	.st3{fill:#AA2520;}
	.st4{fill:#ACACAC;}
	.st5{fill:#038EAA;}
	.st6{fill:#0B778D;}
	.st7{fill:#08859E;}
	.st8{fill:none;stroke:#000000;stroke-miterlimit:10;}
</style>
<g id="Diana">
	<path id="XMLID_18_" class="st0" d="M304.7,5.1c-165.7,0-300,134.3-300,300c0,165.7,134.3,300,300,300c165.7,0,300-134.3,300-300
		C604.7,139.4,470.4,5.1,304.7,5.1z M304.7,545.1c-132.5,0-240-107.5-240-240s107.5-240,240-240c132.5,0,240,107.5,240,240
		S437.2,545.1,304.7,545.1z"/>
	<path id="XMLID_13_" class="st1" d="M544.7,305.1c0,132.5-107.5,240-240,240c-132.5,0-240-107.5-240-240s107.5-240,240-240
		C437.2,65.1,544.7,172.5,544.7,305.1z"/>
	<path id="XMLID_21_" class="st2" d="M304.7,65.1c-132.5,0-240,107.5-240,240s107.5,240,240,240c132.5,0,240-107.5,240-240
		S437.2,65.1,304.7,65.1z M304.7,477.9c-95.4,0-172.8-77.4-172.8-172.8c0-95.4,77.4-172.8,172.8-172.8
		c95.4,0,172.8,77.4,172.8,172.8C477.5,400.5,400.1,477.9,304.7,477.9z"/>
	<path id="XMLID_11_" class="st1" d="M477.5,305.1c0,95.4-77.4,172.8-172.8,172.8c-95.4,0-172.8-77.4-172.8-172.8
		c0-95.4,77.4-172.8,172.8-172.8C400.1,132.3,477.5,209.6,477.5,305.1z"/>
	<path id="XMLID_24_" class="st3" d="M304.7,132.3c-95.4,0-172.8,77.4-172.8,172.8c0,95.4,77.4,172.8,172.8,172.8
		c95.4,0,172.8-77.4,172.8-172.8C477.5,209.6,400.1,132.3,304.7,132.3z M304.7,426c-66.8,0-121-54.2-121-121
		c0-66.8,54.2-121,121-121c66.8,0,121,54.2,121,121C425.6,371.9,371.5,426,304.7,426z"/>
	<path id="XMLID_12_" class="st1" d="M425.6,305.1c0,66.8-54.2,121-121,121c-66.8,0-121-54.2-121-121c0-66.8,54.2-121,121-121
		C371.5,184.1,425.6,238.2,425.6,305.1z"/>
	<path id="XMLID_27_" class="st2" d="M304.7,184.1c-66.8,0-121,54.2-121,121c0,66.8,54.2,121,121,121c66.8,0,121-54.2,121-121
		C425.6,238.2,371.5,184.1,304.7,184.1z M304.7,355.5c-27.8,0-50.4-22.6-50.4-50.4c0-27.8,22.6-50.4,50.4-50.4
		c27.8,0,50.4,22.6,50.4,50.4C355.1,332.9,332.5,355.5,304.7,355.5z"/>
	<path id="XMLID_10_" class="st1" d="M355.1,305.1c0,27.8-22.6,50.4-50.4,50.4c-27.8,0-50.4-22.6-50.4-50.4
		c0-27.8,22.6-50.4,50.4-50.4C332.5,254.7,355.1,277.2,355.1,305.1z"/>
	<path id="XMLID_8_" class="st3" d="M355.1,305.1c0,27.8-22.6,50.4-50.4,50.4c-27.8,0-50.4-22.6-50.4-50.4
		c0-27.8,22.6-50.4,50.4-50.4C332.5,254.7,355.1,277.2,355.1,305.1z"/>
</g>
<g id="Dardos">
	<g id="XMLID_149_">
		<polygon id="XMLID_156_" class="st4" points="154.8,470.2 157.7,473.6 170.3,461.6 		"/>
		<path id="XMLID_155_" class="st5" d="M96.1,511l59.7-45.3c2.1-1.6,5.2-1.2,6.8,0.9l0,0c1.6,2.1,1.2,5.2-0.9,6.8l-59.7,45.3
			L96.1,511z"/>
		<polygon id="XMLID_154_" class="st5" points="138.9,550.1 115.8,533.8 94.1,520 121,498.6 		"/>
		<polygon id="XMLID_153_" class="st6" points="94.1,520 97.8,496.2 100.7,474.8 121,498.6 		"/>
		<polygon id="XMLID_152_" class="st7" points="50.7,492.5 97.8,496.2 94.1,520 		"/>
		<polygon id="XMLID_151_" class="st6" points="114.3,545.1 94.1,520 115.8,533.8 		"/>
		<path id="XMLID_150_" class="st8" d="M121,498.6"/>
	</g>
	<g id="XMLID_141_">
		<polygon id="XMLID_148_" class="st4" points="225.9,281.9 224.6,277.7 241.6,273.5 		"/>
		<path id="XMLID_147_" class="st5" d="M160,309.5l70.3-26c2.5-0.9,3.8-3.7,2.9-6.2v0c-0.9-2.5-3.7-3.8-6.2-2.9l-70.3,26L160,309.5z
			"/>
		<polygon id="XMLID_146_" class="st5" points="150,252.4 151.4,280.6 151.4,306.4 183.9,295.2 		"/>
		<polygon id="XMLID_145_" class="st6" points="151.4,306.4 173.4,316.1 193,325.1 183.9,295.2 		"/>
		<polygon id="XMLID_144_" class="st7" points="151.2,357.7 173.4,316.1 151.4,306.4 		"/>
		<polygon id="XMLID_143_" class="st6" points="141,275.9 151.4,306.4 151.4,280.6 		"/>
		<path id="XMLID_142_" class="st8" d="M183.9,295.2"/>
	</g>
	<g id="XMLID_133_">
		<polygon id="XMLID_140_" class="st4" points="142.7,196.2 144.8,192.3 159.6,201.4 		"/>
		<path id="XMLID_139_" class="st5" d="M76.8,168.5l67.9,31.9c2.4,1.1,5.3,0.1,6.4-2.3v0c1.1-2.4,0.1-5.3-2.3-6.4l-67.9-31.9
			L76.8,168.5z"/>
		<polygon id="XMLID_138_" class="st5" points="110.5,121.3 91.3,142.1 72.9,160.1 103.7,175.5 		"/>
		<polygon id="XMLID_137_" class="st6" points="72.9,160.1 81.5,182.6 88.8,202.9 103.7,175.5 		"/>
		<polygon id="XMLID_136_" class="st7" points="36.2,196 81.5,182.6 72.9,160.1 		"/>
		<polygon id="XMLID_135_" class="st6" points="87.4,131.4 72.9,160.1 91.3,142.1 		"/>
		<path id="XMLID_134_" class="st8" d="M103.7,175.5"/>
	</g>
	<g id="XMLID_125_">
		<polygon id="XMLID_132_" class="st4" points="355,319.9 356.3,315.7 339.4,311.5 		"/>
		<path id="XMLID_131_" class="st5" d="M420.9,347.5l-70.3-26c-2.5-0.9-3.8-3.7-2.9-6.2v0c0.9-2.5,3.7-3.8,6.2-2.9l70.3,26
			L420.9,347.5z"/>
		<polygon id="XMLID_130_" class="st5" points="430.9,290.4 429.6,318.6 429.6,344.4 397.1,333.2 		"/>
		<polygon id="XMLID_129_" class="st6" points="429.6,344.4 407.6,354 387.9,363 397.1,333.2 		"/>
		<polygon id="XMLID_128_" class="st7" points="429.7,395.7 407.6,354 429.6,344.4 		"/>
		<polygon id="XMLID_127_" class="st6" points="439.9,313.9 429.6,344.4 429.6,318.6 		"/>
		<path id="XMLID_126_" class="st8" d="M397.1,333.2"/>
	</g>
	<g id="XMLID_117_">
		<polygon id="XMLID_124_" class="st4" points="448.9,240.8 446.3,237.3 432.9,248.5 		"/>
		<path id="XMLID_123_" class="st5" d="M510.1,203.9l-62.5,41.4c-2.2,1.5-5.2,0.9-6.7-1.4v0c-1.5-2.2-0.9-5.2,1.4-6.7l62.5-41.4
			L510.1,203.9z"/>
		<polygon id="XMLID_122_" class="st5" points="469.9,162.1 491.9,179.9 512.7,195.1 484.5,214.7 		"/>
		<polygon id="XMLID_121_" class="st6" points="512.7,195.1 507.5,218.5 503.2,239.7 484.5,214.7 		"/>
		<polygon id="XMLID_120_" class="st7" points="554.2,225.2 507.5,218.5 512.7,195.1 		"/>
		<polygon id="XMLID_119_" class="st6" points="494.1,168.7 512.7,195.1 491.9,179.9 		"/>
		<path id="XMLID_118_" class="st8" d="M484.5,214.7"/>
	</g>
	<g id="XMLID_109_">
		<polygon id="XMLID_116_" class="st4" points="374.1,521.9 375.4,517.7 358.5,513.5 		"/>
		<path id="XMLID_115_" class="st5" d="M440,549.5l-70.3-26c-2.5-0.9-3.8-3.7-2.9-6.2l0,0c0.9-2.5,3.7-3.8,6.2-2.9l70.3,26
			L440,549.5z"/>
		<polygon id="XMLID_114_" class="st5" points="450,492.4 448.7,520.6 448.7,546.4 416.2,535.2 		"/>
		<polygon id="XMLID_113_" class="st6" points="448.7,546.4 426.7,556.1 407,565.1 416.2,535.2 		"/>
		<polygon id="XMLID_112_" class="st7" points="448.8,597.7 426.7,556.1 448.7,546.4 		"/>
		<polygon id="XMLID_111_" class="st6" points="459,515.9 448.7,546.4 448.7,520.6 		"/>
		<path id="XMLID_110_" class="st8" d="M416.2,535.2"/>
	</g>
	<g id="XMLID_101_">
		<polygon id="XMLID_108_" class="st4" points="408,136.1 405.8,132.2 391.1,141.6 		"/>
		<path id="XMLID_107_" class="st5" d="M473.5,107.5l-67.4,32.9c-2.4,1.2-5.3,0.2-6.5-2.2v0c-1.2-2.4-0.2-5.3,2.2-6.5l67.4-32.9
			L473.5,107.5z"/>
		<polygon id="XMLID_106_" class="st5" points="439.1,60.8 458.6,81.3 477.2,99.1 446.7,114.9 		"/>
		<polygon id="XMLID_105_" class="st6" points="477.2,99.1 469,121.7 461.9,142.1 446.7,114.9 		"/>
		<polygon id="XMLID_104_" class="st7" points="514.5,134.4 469,121.7 477.2,99.1 		"/>
		<polygon id="XMLID_103_" class="st6" points="462.3,70.6 477.2,99.1 458.6,81.3 		"/>
		<path id="XMLID_102_" class="st8" d="M446.7,114.9"/>
	</g>
</g>
</svg>
