<?xml version="1.0" encoding="utf-8"?>
<!-- Generator: Adobe Illustrator 19.0.0, SVG Export Plug-In . SVG Version: 6.00 Build 0)  -->
<svg version="1.1" xmlns="http://www.w3.org/2000/svg" xmlns:xlink="http://www.w3.org/1999/xlink" x="0px" y="0px"
	 viewBox="0 0 76.3 89.8" style="enable-background:new 0 0 76.3 89.8;" xml:space="preserve">
<g id="Capa_2">
</g>
<g id="Capa_1">
	<path id="XMLID_3_" d="M38.8,89.8c0,0,12,0.9,24.3-5.3c3.2-1.6,6.6-3.1,9.4-5.5c4.5-3.9,3.8-9.7,3.8-15.1c0-4.6,0-9.3,0-13.9
		c0-11.1,0-22.2,0-33.3c0-4.2,0-8.4,0-12.6c0,0-20.6-3.9-37.5-4.1S7.9,3.3,0,4c0,0,0,66.2,0,66.3c0,7.2,7.3,12.2,13.5,14.2
		c-2.9-1.5-4.7-6.6-4.7-9.6c0,0-0.1-65.5-0.1-65.5s18.1-5.9,29.5-5.8s29.6,5.6,29.6,5.6V72c0,0,0.1,5.4-3.6,7.8s-13,7.3-14.4,7
		c0,0-7.5,2.4-7.4-1s0.8-4.6,0.8-4.6c0.7-1.1,1.3-2.4,2.2-3.4c0.7-0.9,1.8-1.6,2.2-2.6c1.3-3.1,1-7.7,1.2-11c0.2-4,0.3-8.1-0.1-12.1
		c-0.9-10-6-35.9-7.5-36.1c0,0,1.5-0.6-4.3-9.8c0,0-4.4,5.6-4.6,17.8c0,0-3.4,38.8-2.5,40.4c0.9,1.6,7.3-51,7.3-51s2.1,13,4.1,21.1
		c0,0,2,18.1,2.3,29.6s0.5,10,0.5,10s0.3,2.3-2.4,6.1c-0.5,0.7-1.8,3.1-2.9,2.4C38.5,84.9,38.7,87.4,38.8,89.8z"/>
</g>
</svg>
