<?xml version="1.0" encoding="utf-8"?>
<!-- Generator: Adobe Illustrator 19.0.0, SVG Export Plug-In . SVG Version: 6.00 Build 0)  -->
<svg version="1.1" id="Capa_1" xmlns="http://www.w3.org/2000/svg" xmlns:xlink="http://www.w3.org/1999/xlink" x="0px" y="0px"
	 viewBox="21 315.7 841.9 170.3" style="enable-background:new 21 315.7 841.9 170.3;" xml:space="preserve">
<style type="text/css">
	.st0{fill:#EED09D;}
	.st1{fill:#804212;}
	.st2{fill:none;}
	.st3{font-family:'ArialMT';}
	.st4{font-size:21px;}
	.st5{fill:#EA4E66;}
	.st6{fill:#016386;}
	.st7{opacity:7.000000e-002;fill:#FFFFFF;enable-background:new    ;}
	.st8{opacity:9.000000e-002;}
	.st9{fill:#FFFFFF;}
</style>
<g>
	<rect id="XMLID_1_" x="28.3" y="335.7" class="st0" width="828.7" height="74.3"/>
	<rect id="XMLID_2_" x="41.1" y="386.4" class="st1" width="4" height="23.6"/>
	<rect id="XMLID_7_" x="141.1" y="396.7" class="st1" width="4" height="13.3"/>
	<rect id="XMLID_3_" x="61.1" y="396.7" class="st1" width="4" height="13.3"/>
	<rect id="XMLID_4_" x="81.1" y="396.7" class="st1" width="4" height="13.3"/>
	<rect id="XMLID_6_" x="101.1" y="396.7" class="st1" width="4" height="13.3"/>
	<rect id="XMLID_5_" x="121.1" y="396.7" class="st1" width="4" height="13.3"/>
	<rect id="XMLID_12_" x="240.7" y="386.4" class="st1" width="4" height="23.6"/>
	<rect id="XMLID_11_" x="160.7" y="396.7" class="st1" width="4" height="13.3"/>
	<rect id="XMLID_10_" x="180.7" y="396.7" class="st1" width="4" height="13.3"/>
	<rect id="XMLID_9_" x="200.7" y="396.7" class="st1" width="4" height="13.3"/>
	<rect id="XMLID_8_" x="220.7" y="396.7" class="st1" width="4" height="13.3"/>
	<rect id="XMLID_17_" x="340.7" y="396.7" class="st1" width="4" height="13.3"/>
	<rect id="XMLID_16_" x="260.7" y="396.7" class="st1" width="4" height="13.3"/>
	<rect id="XMLID_15_" x="280.7" y="396.7" class="st1" width="4" height="13.3"/>
	<rect id="XMLID_14_" x="300.7" y="396.7" class="st1" width="4" height="13.3"/>
	<rect id="XMLID_13_" x="320.7" y="396.7" class="st1" width="4" height="13.3"/>
	<rect id="XMLID_22_" x="440.7" y="386.4" class="st1" width="4" height="23.6"/>
	<rect id="XMLID_21_" x="360.7" y="396.7" class="st1" width="4" height="13.3"/>
	<rect id="XMLID_20_" x="380.7" y="396.7" class="st1" width="4" height="13.3"/>
	<rect id="XMLID_19_" x="400.7" y="396.7" class="st1" width="4" height="13.3"/>
	<rect id="XMLID_18_" x="420.7" y="396.7" class="st1" width="4" height="13.3"/>
	<rect id="XMLID_27_" x="540.7" y="396.7" class="st1" width="4" height="13.3"/>
	<rect id="XMLID_26_" x="460.7" y="396.7" class="st1" width="4" height="13.3"/>
	<rect id="XMLID_25_" x="480.7" y="396.7" class="st1" width="4" height="13.3"/>
	<rect id="XMLID_24_" x="500.7" y="396.7" class="st1" width="4" height="13.3"/>
	<rect id="XMLID_23_" x="520.7" y="396.7" class="st1" width="4" height="13.3"/>
	<rect id="XMLID_32_" x="640.7" y="386.4" class="st1" width="4" height="23.6"/>
	<rect id="XMLID_31_" x="560.7" y="396.7" class="st1" width="4" height="13.3"/>
	<rect id="XMLID_30_" x="580.7" y="396.7" class="st1" width="4" height="13.3"/>
	<rect id="XMLID_29_" x="600.7" y="396.7" class="st1" width="4" height="13.3"/>
	<rect id="XMLID_28_" x="620.7" y="396.7" class="st1" width="4" height="13.3"/>
	<rect id="XMLID_43_" x="640.7" y="386.4" class="st1" width="4" height="23.6"/>
	<rect id="XMLID_42_" x="740.8" y="396.7" class="st1" width="4" height="13.3"/>
	<rect id="XMLID_41_" x="660.8" y="396.7" class="st1" width="4" height="13.3"/>
	<rect id="XMLID_40_" x="680.8" y="396.7" class="st1" width="4" height="13.3"/>
	<rect id="XMLID_39_" x="700.8" y="396.7" class="st1" width="4" height="13.3"/>
	<rect id="XMLID_38_" x="720.8" y="396.7" class="st1" width="4" height="13.3"/>
	<rect id="XMLID_37_" x="840.8" y="386.4" class="st1" width="4" height="23.6"/>
	<rect id="XMLID_36_" x="760.8" y="396.7" class="st1" width="4" height="13.3"/>
	<rect id="XMLID_35_" x="780.8" y="396.7" class="st1" width="4" height="13.3"/>
	<rect id="XMLID_34_" x="800.8" y="396.7" class="st1" width="4" height="13.3"/>
	<rect id="XMLID_33_" x="820.8" y="396.7" class="st1" width="4" height="13.3"/>
	<rect id="XMLID_44_" x="37.3" y="363.4" class="st2" width="20.7" height="17.3"/>
	<text id="XMLID_45_" transform="matrix(1 0 0 1 37.3334 378.4021)" class="st3 st4">0</text>
	<rect id="XMLID_55_" x="52.9" y="363.4" class="st2" width="31.2" height="17.3"/>
	<text id="XMLID_54_" transform="matrix(1 0 0 1 52.9168 378.4021)" class="st3 st4">cm</text>
	<rect id="XMLID_47_" x="235.3" y="363.4" class="st2" width="20.7" height="17.3"/>
	<text id="XMLID_46_" transform="matrix(1 0 0 1 235.3333 378.4021)" class="st3 st4">1</text>
	<rect id="XMLID_49_" x="436.4" y="363.4" class="st2" width="20.7" height="17.3"/>
	<text id="XMLID_48_" transform="matrix(1 0 0 1 436.4306 378.4021)" class="st3 st4">2</text>
	<rect id="XMLID_51_" x="637.3" y="365.4" class="st2" width="20.7" height="17.3"/>
	<text id="XMLID_50_" transform="matrix(1 0 0 1 637.3334 380.4245)" class="st3 st4">3</text>
	<rect id="XMLID_53_" x="836.3" y="365.4" class="st2" width="20.7" height="17.3"/>
	<text id="XMLID_52_" transform="matrix(1 0 0 1 836.3334 380.4245)" class="st3 st4">4</text>
</g>
<g>
	<path id="XMLID_65_" class="st5" d="M396,418l-23,39.7l-41.7,0.3c-7,0.1-14.1,0.4-21.1,1.1l-49.5,4.9l-68.9,5.3
		c-6,0.5-12.1,0.5-18.1,0L101,464H63c-11,0-20-8.9-20-20c0-11,9-20,20-20h38l76,5.1c5.1,0.4,10.3,0.3,15.4,0l68.3-5.1l46-4.6
		c9.3-0.9,18.7-1.4,28.1-1.4H396z"/>
	<path id="XMLID_64_" class="st6" d="M690,443.8c0.1,5.6-2.2,10.7-5.9,14.4c-3.6,3.6-8.6,5.9-14.1,5.9h-84.1
		c-7.9,0-15.8-0.3-23.7-0.8l-85.8-5.4c-9-0.6-18.1-0.8-27.2-0.8l-76.1,0.5c0,0,0,0,0-0.1l23-39.6l0,0h58.7c6.7,0,13.3,0.2,20,0.6
		l85.6,4.8c8.4,0.5,16.8,0.7,25.2,0.7h83.8C680.5,424,689.9,432.8,690,443.8z"/>
	<path id="XMLID_805_" class="st7" d="M396,418l-23,39.7l-41.7,0.3c-7,0.1-14.1,0.4-21.1,1.1l-49.5,4.9l-68.9,5.3
		c-6,0.5-12.1,0.5-18.1,0L101,464H63c-11,0-20-8.9-20-20c0-11,9-20,20-20h38l76,5.1c5.1,0.4,10.3,0.3,15.4,0l68.3-5.1l46-4.6
		c9.3-0.9,18.7-1.4,28.1-1.4H396z"/>
	<path id="XMLID_804_" class="st7" d="M690,443.8c0.1,5.6-2.2,10.7-5.9,14.4c-3.6,3.6-8.6,5.9-14.1,5.9h-84.1
		c-7.9,0-15.8-0.3-23.7-0.8l-85.8-5.4c-9-0.6-18.1-0.8-27.2-0.8l-76.1,0.5c0,0,0,0,0-0.1l23-39.6l0,0h58.7c6.7,0,13.3,0.2,20,0.6
		l85.6,4.8c8.4,0.5,16.8,0.7,25.2,0.7h83.8C680.5,424,689.9,432.8,690,443.8z"/>
</g>
<g class="st8">
	<path id="XMLID_59_" class="st9" d="M396,418l-23,39.7l-41.7,0.3c-7,0.1-14.1,0.4-21.1,1.1l-49.5,4.9l-68.9,5.3
		c-6,0.5-12.1,0.5-18.1,0L101,464H63c-11,0-20-8.9-20-20c0-11,9-20,20-20h38l76,5.1c5.1,0.4,10.3,0.3,15.4,0l68.3-5.1l46-4.6
		c9.3-0.9,18.7-1.4,28.1-1.4H396z"/>
	<path id="XMLID_58_" class="st9" d="M690,443.8c0.1,5.6-2.2,10.7-5.9,14.4c-3.6,3.6-8.6,5.9-14.1,5.9h-84.1
		c-7.9,0-15.8-0.3-23.7-0.8l-85.8-5.4c-9-0.6-18.1-0.8-27.2-0.8l-76.1,0.5c0,0,0,0,0-0.1l23-39.6l0,0h58.7c6.7,0,13.3,0.2,20,0.6
		l85.6,4.8c8.4,0.5,16.8,0.7,25.2,0.7h83.8C680.5,424,689.9,432.8,690,443.8z"/>
	<path id="XMLID_57_" class="st7" d="M396,418l-23,39.7l-41.7,0.3c-7,0.1-14.1,0.4-21.1,1.1l-49.5,4.9l-68.9,5.3
		c-6,0.5-12.1,0.5-18.1,0L101,464H63c-11,0-20-8.9-20-20c0-11,9-20,20-20h38l76,5.1c5.1,0.4,10.3,0.3,15.4,0l68.3-5.1l46-4.6
		c9.3-0.9,18.7-1.4,28.1-1.4H396z"/>
	<path id="XMLID_56_" class="st7" d="M690,443.8c0.1,5.6-2.2,10.7-5.9,14.4c-3.6,3.6-8.6,5.9-14.1,5.9h-84.1
		c-7.9,0-15.8-0.3-23.7-0.8l-85.8-5.4c-9-0.6-18.1-0.8-27.2-0.8l-76.1,0.5c0,0,0,0,0-0.1l23-39.6l0,0h58.7c6.7,0,13.3,0.2,20,0.6
		l85.6,4.8c8.4,0.5,16.8,0.7,25.2,0.7h83.8C680.5,424,689.9,432.8,690,443.8z"/>
</g>
</svg>
